<svg width="1920" height="90" viewBox="0 0 1920 90" fill="none" xmlns="http://www.w3.org/2000/svg">
<rect width="1920" height="90" fill="#5A3564"/>
<path d="M1103.26 37.8H1105.26V49.02L1110 37.8H1111.62V54H1109.64V42.6L1104.94 54H1103.26V37.8ZM1116.7 54.2C1115.65 54.2 1114.87 53.9 1114.36 53.3C1113.87 52.6867 1113.62 51.74 1113.62 50.46H1115.44C1115.44 51.2333 1115.55 51.8 1115.76 52.16C1115.99 52.5067 1116.31 52.68 1116.74 52.68C1117.22 52.68 1117.53 52.5067 1117.66 52.16C1117.81 51.8133 1117.88 51.2733 1117.88 50.54C1117.88 50.0333 1117.81 49.66 1117.66 49.42C1117.53 49.18 1117.3 49.02 1116.98 48.94C1116.66 48.8467 1116.18 48.8 1115.54 48.8V47.28C1116.45 47.28 1117.06 47.1467 1117.38 46.88C1117.71 46.6133 1117.88 46.1467 1117.88 45.48C1117.88 44.9333 1117.77 44.5267 1117.54 44.26C1117.31 43.9933 1117.01 43.86 1116.62 43.86C1116.18 43.86 1115.85 44 1115.62 44.28C1115.41 44.5467 1115.3 45.04 1115.3 45.76H1113.48C1113.48 44.52 1113.75 43.6333 1114.3 43.1C1114.86 42.5533 1115.66 42.28 1116.7 42.28C1117.7 42.28 1118.45 42.58 1118.96 43.18C1119.48 43.78 1119.74 44.5067 1119.74 45.36C1119.74 46.2667 1119.55 46.92 1119.16 47.32C1118.77 47.72 1118.32 47.9467 1117.8 48C1118.19 48.08 1118.51 48.1933 1118.78 48.34C1119.05 48.4733 1119.27 48.74 1119.46 49.14C1119.66 49.5267 1119.76 50.0933 1119.76 50.84C1119.76 51.9467 1119.51 52.7867 1119 53.36C1118.49 53.92 1117.73 54.2 1116.7 54.2ZM1121.48 42.44H1126.14V43.98H1123.62V54H1121.48V42.44ZM1130.42 54.16C1129.19 54.16 1128.32 53.8 1127.8 53.08C1127.29 52.3467 1127.04 51.2867 1127.04 49.9V46.54C1127.04 45.1533 1127.29 44.1 1127.8 43.38C1128.32 42.6467 1129.19 42.28 1130.42 42.28C1131.63 42.28 1132.49 42.6467 1133 43.38C1133.52 44.1 1133.78 45.1533 1133.78 46.54V49.9C1133.78 51.2867 1133.52 52.3467 1133 53.08C1132.49 53.8 1131.63 54.16 1130.42 54.16ZM1130.42 52.58C1130.81 52.58 1131.09 52.4667 1131.26 52.24C1131.43 52.0133 1131.54 51.7333 1131.58 51.4C1131.62 51.0667 1131.64 50.6133 1131.64 50.04V46.42C1131.64 45.8467 1131.62 45.3933 1131.58 45.06C1131.54 44.7133 1131.43 44.4267 1131.26 44.2C1131.09 43.9733 1130.81 43.86 1130.42 43.86C1130.03 43.86 1129.75 43.9733 1129.56 44.2C1129.39 44.4267 1129.28 44.7133 1129.24 45.06C1129.2 45.3933 1129.18 45.8467 1129.18 46.42V50.04C1129.18 50.6133 1129.2 51.0667 1129.24 51.4C1129.28 51.7333 1129.39 52.0133 1129.56 52.24C1129.75 52.4667 1130.03 52.58 1130.42 52.58ZM1136.88 44.04H1134.72V42.44H1141.2V44.04H1139.02V54H1136.88V44.04ZM1145.56 54.16C1144.33 54.16 1143.46 53.8 1142.94 53.08C1142.43 52.3467 1142.18 51.2867 1142.18 49.9V46.54C1142.18 45.1533 1142.43 44.1 1142.94 43.38C1143.46 42.6467 1144.33 42.28 1145.56 42.28C1146.77 42.28 1147.63 42.6467 1148.14 43.38C1148.66 44.1 1148.92 45.1533 1148.92 46.54V49.9C1148.92 51.2867 1148.66 52.3467 1148.14 53.08C1147.63 53.8 1146.77 54.16 1145.56 54.16ZM1145.56 52.58C1145.94 52.58 1146.22 52.4667 1146.4 52.24C1146.57 52.0133 1146.68 51.7333 1146.72 51.4C1146.76 51.0667 1146.78 50.6133 1146.78 50.04V46.42C1146.78 45.8467 1146.76 45.3933 1146.72 45.06C1146.68 44.7133 1146.57 44.4267 1146.4 44.2C1146.22 43.9733 1145.94 43.86 1145.56 43.86C1145.17 43.86 1144.88 43.9733 1144.7 44.2C1144.52 44.4267 1144.42 44.7133 1144.38 45.06C1144.34 45.3933 1144.32 45.8467 1144.32 46.42V50.04C1144.32 50.6133 1144.34 51.0667 1144.38 51.4C1144.42 51.7333 1144.52 52.0133 1144.7 52.24C1144.88 52.4667 1145.17 52.58 1145.56 52.58ZM1150.87 42.44H1154.11C1155.22 42.44 1156.01 42.7067 1156.49 43.24C1156.99 43.7733 1157.23 44.46 1157.23 45.3C1157.23 45.9133 1157.12 46.4267 1156.89 46.84C1156.67 47.24 1156.27 47.5267 1155.71 47.7C1156.37 47.8333 1156.83 48.1667 1157.09 48.7C1157.37 49.2333 1157.51 49.88 1157.51 50.64C1157.51 51.7333 1157.27 52.5667 1156.77 53.14C1156.28 53.7133 1155.43 54 1154.21 54H1150.87V42.44ZM1154.01 47.1C1154.45 47.1 1154.79 46.9733 1155.01 46.72C1155.24 46.4667 1155.35 46.0467 1155.35 45.46C1155.35 44.94 1155.22 44.5667 1154.95 44.34C1154.69 44.1133 1154.3 44 1153.79 44H1152.97V47.1H1154.01ZM1153.73 52.38C1154.27 52.38 1154.68 52.2533 1154.97 52C1155.27 51.7467 1155.41 51.2667 1155.41 50.56C1155.41 49.9867 1155.35 49.5667 1155.21 49.3C1155.08 49.02 1154.91 48.84 1154.69 48.76C1154.48 48.68 1154.19 48.64 1153.83 48.64H1152.97V52.38H1153.73ZM1158.32 52.48C1158.85 52.48 1159.24 52.34 1159.48 52.06C1159.73 51.7667 1159.9 51.2933 1160 50.64C1160.1 49.9867 1160.2 48.9267 1160.28 47.46L1160.54 42.44H1166.6V54H1164.46V44.06H1162.42L1162.24 47.46C1162.14 49.3133 1161.99 50.7 1161.78 51.62C1161.56 52.5267 1161.21 53.1667 1160.72 53.54C1160.24 53.9133 1159.52 54.1 1158.56 54.1H1158.32V52.48ZM1171.96 54.16C1171.07 54.16 1170.38 53.9933 1169.88 53.66C1169.39 53.3133 1169.04 52.8067 1168.84 52.14C1168.64 51.4733 1168.54 50.6067 1168.54 49.54V46.9C1168.54 45.3 1168.79 44.1333 1169.28 43.4C1169.79 42.6533 1170.68 42.28 1171.96 42.28C1172.9 42.28 1173.6 42.4733 1174.06 42.86C1174.54 43.2467 1174.86 43.7933 1175 44.5C1175.16 45.1933 1175.24 46.1333 1175.24 47.32V48.26H1170.68V50.58C1170.68 51.2867 1170.78 51.8 1170.98 52.12C1171.2 52.4267 1171.53 52.58 1171.98 52.58C1172.44 52.58 1172.74 52.4267 1172.9 52.12C1173.06 51.8 1173.14 51.32 1173.14 50.68V49.98H1175.22V50.42C1175.22 51.6333 1174.96 52.56 1174.44 53.2C1173.92 53.84 1173.1 54.16 1171.96 54.16ZM1173.14 47.1V46.06C1173.14 45.2733 1173.06 44.7133 1172.9 44.38C1172.76 44.0333 1172.44 43.86 1171.94 43.86C1171.6 43.86 1171.33 43.94 1171.14 44.1C1170.97 44.26 1170.85 44.5267 1170.78 44.9C1170.72 45.26 1170.68 45.7867 1170.68 46.48V47.1H1173.14ZM1177.18 42.44H1179.32V47.3H1182.06V42.44H1184.2V54H1182.06V48.86H1179.32V54H1177.18V42.44ZM1186.36 42.44H1188.16V50.22L1191.64 42.44H1193.32V54H1191.56V46.16L1188.1 54H1186.36V42.44ZM1198.7 54.16C1197.81 54.16 1197.12 53.9933 1196.62 53.66C1196.13 53.3133 1195.78 52.8067 1195.58 52.14C1195.38 51.4733 1195.28 50.6067 1195.28 49.54V46.9C1195.28 45.3 1195.53 44.1333 1196.02 43.4C1196.53 42.6533 1197.42 42.28 1198.7 42.28C1199.64 42.28 1200.34 42.4733 1200.8 42.86C1201.28 43.2467 1201.6 43.7933 1201.74 44.5C1201.9 45.1933 1201.98 46.1333 1201.98 47.32V48.26H1197.42V50.58C1197.42 51.2867 1197.52 51.8 1197.72 52.12C1197.94 52.4267 1198.27 52.58 1198.72 52.58C1199.18 52.58 1199.48 52.4267 1199.64 52.12C1199.8 51.8 1199.88 51.32 1199.88 50.68V49.98H1201.96V50.42C1201.96 51.6333 1201.7 52.56 1201.18 53.2C1200.66 53.84 1199.84 54.16 1198.7 54.16ZM1199.88 47.1V46.06C1199.88 45.2733 1199.8 44.7133 1199.64 44.38C1199.5 44.0333 1199.18 43.86 1198.68 43.86C1198.34 43.86 1198.07 43.94 1197.88 44.1C1197.71 44.26 1197.59 44.5267 1197.52 44.9C1197.46 45.26 1197.42 45.7867 1197.42 46.48V47.1H1199.88ZM1210.57 54.16C1210.13 54.16 1209.73 54.0333 1209.37 53.78C1209.02 53.5267 1208.75 53.1933 1208.55 52.78C1208.35 52.3667 1208.25 51.9333 1208.25 51.48C1208.25 50.5733 1208.44 49.84 1208.83 49.28C1209.22 48.7067 1209.71 48.2533 1210.31 47.92C1210.91 47.5867 1211.74 47.2067 1212.81 46.78V45.96C1212.81 45.2 1212.73 44.6667 1212.57 44.36C1212.42 44.04 1212.12 43.88 1211.65 43.88C1210.84 43.88 1210.43 44.4267 1210.43 45.52V46.1L1208.31 46.02C1208.34 44.74 1208.63 43.8 1209.19 43.2C1209.75 42.5867 1210.62 42.28 1211.79 42.28C1212.9 42.28 1213.7 42.5867 1214.19 43.2C1214.7 43.8 1214.95 44.7133 1214.95 45.94V51.22C1214.95 52.0867 1215.02 53.0133 1215.15 54H1213.19C1213.04 53.24 1212.95 52.6733 1212.91 52.3C1212.75 52.82 1212.47 53.26 1212.07 53.62C1211.68 53.98 1211.18 54.16 1210.57 54.16ZM1211.41 52.32C1211.69 52.32 1211.96 52.2133 1212.23 52C1212.5 51.7733 1212.69 51.56 1212.81 51.36V48.08C1212.24 48.4 1211.79 48.68 1211.47 48.92C1211.16 49.1467 1210.9 49.4133 1210.69 49.72C1210.49 50.0267 1210.39 50.3933 1210.39 50.82C1210.39 51.3 1210.48 51.6733 1210.65 51.94C1210.82 52.1933 1211.08 52.32 1211.41 52.32ZM1217.01 42.44H1219.15V47.32H1219.75L1221.93 42.44H1224.13L1221.71 48.04L1224.17 54H1221.93L1219.75 48.6H1219.15V54H1217.01V42.44ZM1225.31 42.44H1228.55C1229.65 42.44 1230.45 42.7067 1230.93 43.24C1231.42 43.7733 1231.67 44.46 1231.67 45.3C1231.67 45.9133 1231.55 46.4267 1231.33 46.84C1231.1 47.24 1230.71 47.5267 1230.15 47.7C1230.8 47.8333 1231.26 48.1667 1231.53 48.7C1231.81 49.2333 1231.95 49.88 1231.95 50.64C1231.95 51.7333 1231.7 52.5667 1231.21 53.14C1230.71 53.7133 1229.86 54 1228.65 54H1225.31V42.44ZM1228.45 47.1C1228.89 47.1 1229.22 46.9733 1229.45 46.72C1229.67 46.4667 1229.79 46.0467 1229.79 45.46C1229.79 44.94 1229.65 44.5667 1229.39 44.34C1229.12 44.1133 1228.73 44 1228.23 44H1227.41V47.1H1228.45ZM1228.17 52.38C1228.7 52.38 1229.11 52.2533 1229.41 52C1229.7 51.7467 1229.85 51.2667 1229.85 50.56C1229.85 49.9867 1229.78 49.5667 1229.65 49.3C1229.51 49.02 1229.34 48.84 1229.13 48.76C1228.91 48.68 1228.63 48.64 1228.27 48.64H1227.41V52.38H1228.17ZM1235.69 54.16C1235.25 54.16 1234.85 54.0333 1234.49 53.78C1234.14 53.5267 1233.87 53.1933 1233.67 52.78C1233.47 52.3667 1233.37 51.9333 1233.37 51.48C1233.37 50.5733 1233.56 49.84 1233.95 49.28C1234.33 48.7067 1234.83 48.2533 1235.43 47.92C1236.03 47.5867 1236.86 47.2067 1237.93 46.78V45.96C1237.93 45.2 1237.85 44.6667 1237.69 44.36C1237.54 44.04 1237.23 43.88 1236.77 43.88C1235.95 43.88 1235.55 44.4267 1235.55 45.52V46.1L1233.43 46.02C1233.45 44.74 1233.75 43.8 1234.31 43.2C1234.87 42.5867 1235.73 42.28 1236.91 42.28C1238.01 42.28 1238.81 42.5867 1239.31 43.2C1239.81 43.8 1240.07 44.7133 1240.07 45.94V51.22C1240.07 52.0867 1240.13 53.0133 1240.27 54H1238.31C1238.16 53.24 1238.07 52.6733 1238.03 52.3C1237.87 52.82 1237.59 53.26 1237.19 53.62C1236.8 53.98 1236.3 54.16 1235.69 54.16ZM1236.53 52.32C1236.81 52.32 1237.08 52.2133 1237.35 52C1237.61 51.7733 1237.81 51.56 1237.93 51.36V48.08C1237.35 48.4 1236.91 48.68 1236.59 48.92C1236.28 49.1467 1236.02 49.4133 1235.81 49.72C1235.61 50.0267 1235.51 50.3933 1235.51 50.82C1235.51 51.3 1235.59 51.6733 1235.77 51.94C1235.94 52.1933 1236.19 52.32 1236.53 52.32ZM1242.12 42.44H1244.26V43.36C1244.89 42.64 1245.62 42.28 1246.46 42.28C1247.52 42.28 1248.22 42.7333 1248.56 43.64C1248.92 44.5333 1249.1 45.5267 1249.1 46.62V49.42C1249.1 50.8333 1248.88 51.98 1248.44 52.86C1248.02 53.7267 1247.28 54.16 1246.22 54.16C1245.54 54.16 1244.89 53.82 1244.26 53.14V57.8H1242.12V42.44ZM1245.8 52.48C1246.3 52.48 1246.61 52.2333 1246.74 51.74C1246.89 51.2333 1246.96 50.46 1246.96 49.42V46.62C1246.96 45.7667 1246.88 45.1133 1246.72 44.66C1246.56 44.1933 1246.23 43.96 1245.72 43.96C1245.23 43.96 1244.74 44.16 1244.26 44.56V51.96C1244.73 52.3067 1245.24 52.48 1245.8 52.48ZM1251.05 42.44H1252.85V50.22L1256.33 42.44H1258.01V54H1256.25V46.16L1252.79 54H1251.05V42.44ZM1260.01 55.26C1260.81 55.26 1261.36 55.2 1261.65 55.08C1261.96 54.96 1262.11 54.7333 1262.11 54.4C1262.11 54.24 1261.96 53.5333 1261.67 52.28L1259.35 42.44H1261.51L1263.07 51.08L1264.57 42.44H1266.73L1263.97 54.64C1263.78 55.4533 1263.39 56.0333 1262.79 56.38C1262.19 56.7267 1261.35 56.9 1260.27 56.9H1260.01V55.26ZM1268.08 42.44H1269.66L1272.22 49.54L1274.8 42.44H1276.38L1276.5 54H1274.7V47.1L1272.56 52.86H1271.9L1269.76 47.14V54H1267.96L1268.08 42.44ZM1281.79 54.16C1280.56 54.16 1279.69 53.8 1279.17 53.08C1278.66 52.3467 1278.41 51.2867 1278.41 49.9V46.54C1278.41 45.1533 1278.66 44.1 1279.17 43.38C1279.69 42.6467 1280.56 42.28 1281.79 42.28C1283 42.28 1283.86 42.6467 1284.37 43.38C1284.89 44.1 1285.15 45.1533 1285.15 46.54V49.9C1285.15 51.2867 1284.89 52.3467 1284.37 53.08C1283.86 53.8 1283 54.16 1281.79 54.16ZM1281.79 52.58C1282.17 52.58 1282.45 52.4667 1282.63 52.24C1282.8 52.0133 1282.91 51.7333 1282.95 51.4C1282.99 51.0667 1283.01 50.6133 1283.01 50.04V46.42C1283.01 45.8467 1282.99 45.3933 1282.95 45.06C1282.91 44.7133 1282.8 44.4267 1282.63 44.2C1282.45 43.9733 1282.17 43.86 1281.79 43.86C1281.4 43.86 1281.11 43.9733 1280.93 44.2C1280.75 44.4267 1280.65 44.7133 1280.61 45.06C1280.57 45.3933 1280.55 45.8467 1280.55 46.42V50.04C1280.55 50.6133 1280.57 51.0667 1280.61 51.4C1280.65 51.7333 1280.75 52.0133 1280.93 52.24C1281.11 52.4667 1281.4 52.58 1281.79 52.58ZM1287.1 42.44H1290.34C1291.45 42.44 1292.24 42.7067 1292.72 43.24C1293.22 43.7733 1293.46 44.46 1293.46 45.3C1293.46 45.9133 1293.35 46.4267 1293.12 46.84C1292.9 47.24 1292.5 47.5267 1291.94 47.7C1292.6 47.8333 1293.06 48.1667 1293.32 48.7C1293.6 49.2333 1293.74 49.88 1293.74 50.64C1293.74 51.7333 1293.5 52.5667 1293 53.14C1292.51 53.7133 1291.66 54 1290.44 54H1287.1V42.44ZM1290.24 47.1C1290.68 47.1 1291.02 46.9733 1291.24 46.72C1291.47 46.4667 1291.58 46.0467 1291.58 45.46C1291.58 44.94 1291.45 44.5667 1291.18 44.34C1290.92 44.1133 1290.53 44 1290.02 44H1289.2V47.1H1290.24ZM1289.96 52.38C1290.5 52.38 1290.91 52.2533 1291.2 52C1291.5 51.7467 1291.64 51.2667 1291.64 50.56C1291.64 49.9867 1291.58 49.5667 1291.44 49.3C1291.31 49.02 1291.14 48.84 1290.92 48.76C1290.71 48.68 1290.42 48.64 1290.06 48.64H1289.2V52.38H1289.96ZM1299.97 42.44H1306.69V54H1304.55V44.06H1302.11V54H1299.97V42.44ZM1312.04 54.16C1310.81 54.16 1309.94 53.8 1309.42 53.08C1308.91 52.3467 1308.66 51.2867 1308.66 49.9V46.54C1308.66 45.1533 1308.91 44.1 1309.42 43.38C1309.94 42.6467 1310.81 42.28 1312.04 42.28C1313.25 42.28 1314.11 42.6467 1314.62 43.38C1315.14 44.1 1315.4 45.1533 1315.4 46.54V49.9C1315.4 51.2867 1315.14 52.3467 1314.62 53.08C1314.11 53.8 1313.25 54.16 1312.04 54.16ZM1312.04 52.58C1312.43 52.58 1312.71 52.4667 1312.88 52.24C1313.05 52.0133 1313.16 51.7333 1313.2 51.4C1313.24 51.0667 1313.26 50.6133 1313.26 50.04V46.42C1313.26 45.8467 1313.24 45.3933 1313.2 45.06C1313.16 44.7133 1313.05 44.4267 1312.88 44.2C1312.71 43.9733 1312.43 43.86 1312.04 43.86C1311.65 43.86 1311.37 43.9733 1311.18 44.2C1311.01 44.4267 1310.9 44.7133 1310.86 45.06C1310.82 45.3933 1310.8 45.8467 1310.8 46.42V50.04C1310.8 50.6133 1310.82 51.0667 1310.86 51.4C1310.9 51.7333 1311.01 52.0133 1311.18 52.24C1311.37 52.4667 1311.65 52.58 1312.04 52.58ZM1321.93 42.44H1323.73V50.22L1327.21 42.44H1328.89V54H1327.13V46.16L1323.67 54H1321.93V42.44ZM1331.07 42.44H1333.21V47.3H1335.95V42.44H1338.09V54H1335.95V48.86H1333.21V54H1331.07V42.44ZM1340.25 42.44H1342.05V50.22L1345.53 42.44H1347.21V54H1345.45V46.16L1341.99 54H1340.25V42.44ZM1348.35 52.58C1348.94 52.14 1349.43 51.5933 1349.83 50.94C1350.23 50.2867 1350.55 49.3933 1350.79 48.26C1351.03 47.1267 1351.16 45.6933 1351.17 43.96L1351.21 42.44H1356.43V52.48H1357.83V56.94H1356.27L1356.09 54H1350.09L1349.91 56.94H1348.35V52.58ZM1354.37 52.48V43.98H1352.87L1352.83 44.4C1352.82 46.1867 1352.7 47.6267 1352.49 48.72C1352.28 49.8 1352 50.6133 1351.67 51.16C1351.34 51.7067 1350.92 52.1467 1350.43 52.48H1354.37ZM1359.31 42.44H1361.11V50.22L1364.59 42.44H1366.27V54H1364.51V46.16L1361.05 54H1359.31V42.44ZM1368.45 42.44H1371.69C1372.8 42.44 1373.59 42.7067 1374.07 43.24C1374.56 43.7733 1374.81 44.46 1374.81 45.3C1374.81 45.9133 1374.7 46.4267 1374.47 46.84C1374.24 47.24 1373.85 47.5267 1373.29 47.7C1373.94 47.8333 1374.4 48.1667 1374.67 48.7C1374.95 49.2333 1375.09 49.88 1375.09 50.64C1375.09 51.7333 1374.84 52.5667 1374.35 53.14C1373.86 53.7133 1373 54 1371.79 54H1368.45V42.44ZM1371.59 47.1C1372.03 47.1 1372.36 46.9733 1372.59 46.72C1372.82 46.4667 1372.93 46.0467 1372.93 45.46C1372.93 44.94 1372.8 44.5667 1372.53 44.34C1372.26 44.1133 1371.88 44 1371.37 44H1370.55V47.1H1371.59ZM1371.31 52.38C1371.84 52.38 1372.26 52.2533 1372.55 52C1372.84 51.7467 1372.99 51.2667 1372.99 50.56C1372.99 49.9867 1372.92 49.5667 1372.79 49.3C1372.66 49.02 1372.48 48.84 1372.27 48.76C1372.06 48.68 1371.77 48.64 1371.41 48.64H1370.55V52.38H1371.31ZM1376.75 42.44H1378.55V50.22L1382.03 42.44H1383.71V54H1381.95V46.16L1378.49 54H1376.75V42.44ZM1384.85 52.58C1385.44 52.14 1385.93 51.5933 1386.33 50.94C1386.73 50.2867 1387.05 49.3933 1387.29 48.26C1387.53 47.1267 1387.66 45.6933 1387.67 43.96L1387.71 42.44H1392.93V52.48H1394.33V56.94H1392.77L1392.59 54H1386.59L1386.41 56.94H1384.85V52.58ZM1390.87 52.48V43.98H1389.37L1389.33 44.4C1389.32 46.1867 1389.21 47.6267 1388.99 48.72C1388.78 49.8 1388.51 50.6133 1388.17 51.16C1387.84 51.7067 1387.43 52.1467 1386.93 52.48H1390.87ZM1395.63 55.26C1396.43 55.26 1396.98 55.2 1397.27 55.08C1397.58 54.96 1397.73 54.7333 1397.73 54.4C1397.73 54.24 1397.59 53.5333 1397.29 52.28L1394.97 42.44H1397.13L1398.69 51.08L1400.19 42.44H1402.35L1399.59 54.64C1399.41 55.4533 1399.01 56.0333 1398.41 56.38C1397.81 56.7267 1396.97 56.9 1395.89 56.9H1395.63V55.26ZM1405.57 54.16C1405.13 54.16 1404.73 54.0333 1404.37 53.78C1404.02 53.5267 1403.75 53.1933 1403.55 52.78C1403.35 52.3667 1403.25 51.9333 1403.25 51.48C1403.25 50.5733 1403.44 49.84 1403.83 49.28C1404.22 48.7067 1404.71 48.2533 1405.31 47.92C1405.91 47.5867 1406.74 47.2067 1407.81 46.78V45.96C1407.81 45.2 1407.73 44.6667 1407.57 44.36C1407.42 44.04 1407.12 43.88 1406.65 43.88C1405.84 43.88 1405.43 44.4267 1405.43 45.52V46.1L1403.31 46.02C1403.34 44.74 1403.63 43.8 1404.19 43.2C1404.75 42.5867 1405.62 42.28 1406.79 42.28C1407.9 42.28 1408.7 42.5867 1409.19 43.2C1409.7 43.8 1409.95 44.7133 1409.95 45.94V51.22C1409.95 52.0867 1410.02 53.0133 1410.15 54H1408.19C1408.04 53.24 1407.95 52.6733 1407.91 52.3C1407.75 52.82 1407.47 53.26 1407.07 53.62C1406.68 53.98 1406.18 54.16 1405.57 54.16ZM1406.41 52.32C1406.69 52.32 1406.96 52.2133 1407.23 52C1407.5 51.7733 1407.69 51.56 1407.81 51.36V48.08C1407.24 48.4 1406.79 48.68 1406.47 48.92C1406.16 49.1467 1405.9 49.4133 1405.69 49.72C1405.49 50.0267 1405.39 50.3933 1405.39 50.82C1405.39 51.3 1405.48 51.6733 1405.65 51.94C1405.82 52.1933 1406.08 52.32 1406.41 52.32ZM1411.27 52.48C1411.8 52.48 1412.19 52.34 1412.43 52.06C1412.68 51.7667 1412.85 51.2933 1412.95 50.64C1413.05 49.9867 1413.15 48.9267 1413.23 47.46L1413.49 42.44H1419.55V54H1417.41V44.06H1415.37L1415.19 47.46C1415.09 49.3133 1414.94 50.7 1414.73 51.62C1414.51 52.5267 1414.16 53.1667 1413.67 53.54C1413.19 53.9133 1412.47 54.1 1411.51 54.1H1411.27V52.48ZM1421.71 42.44H1423.85V47.22H1424.19C1425.3 47.2333 1426.16 47.34 1426.77 47.54C1427.39 47.7267 1427.83 48.06 1428.11 48.54C1428.41 49.02 1428.55 49.7067 1428.55 50.6C1428.55 51.4533 1428.41 52.1267 1428.11 52.62C1427.82 53.1 1427.34 53.4533 1426.67 53.68C1426.02 53.8933 1425.12 54 1423.97 54H1421.71V42.44ZM1423.97 52.74C1424.67 52.74 1425.2 52.68 1425.57 52.56C1425.96 52.44 1426.23 52.2267 1426.39 51.92C1426.55 51.6133 1426.63 51.1667 1426.63 50.58C1426.63 50.0467 1426.56 49.6333 1426.41 49.34C1426.27 49.0467 1426.01 48.8333 1425.65 48.7C1425.29 48.5667 1424.77 48.4933 1424.07 48.48H1423.85V52.74H1423.97ZM1430.01 42.44H1432.15V47.3H1434.89V42.44H1437.03V54H1434.89V48.86H1432.15V54H1430.01V42.44ZM1439.19 42.44H1441.33V47.22H1441.67C1442.78 47.2333 1443.64 47.34 1444.25 47.54C1444.87 47.7267 1445.31 48.06 1445.59 48.54C1445.89 49.02 1446.03 49.7067 1446.03 50.6C1446.03 51.4533 1445.89 52.1267 1445.59 52.62C1445.3 53.1 1444.82 53.4533 1444.15 53.68C1443.5 53.8933 1442.6 54 1441.45 54H1439.19V42.44ZM1447.35 42.44H1449.49V54H1447.35V42.44ZM1441.45 52.74C1442.15 52.74 1442.68 52.68 1443.05 52.56C1443.44 52.44 1443.71 52.2267 1443.87 51.92C1444.03 51.6133 1444.11 51.1667 1444.11 50.58C1444.11 50.0467 1444.04 49.6333 1443.89 49.34C1443.75 49.0467 1443.49 48.8333 1443.13 48.7C1442.77 48.5667 1442.25 48.4933 1441.55 48.48H1441.33V52.74H1441.45ZM1451.71 42.44H1453.29L1455.85 49.54L1458.43 42.44H1460.01L1460.13 54H1458.33V47.1L1456.19 52.86H1455.53L1453.39 47.14V54H1451.59L1451.71 42.44ZM1466.81 42.44H1468.95V43.36C1469.58 42.64 1470.31 42.28 1471.15 42.28C1472.2 42.28 1472.9 42.7333 1473.25 43.64C1473.61 44.5333 1473.79 45.5267 1473.79 46.62V49.42C1473.79 50.8333 1473.57 51.98 1473.13 52.86C1472.7 53.7267 1471.96 54.16 1470.91 54.16C1470.23 54.16 1469.58 53.82 1468.95 53.14V57.8H1466.81V42.44ZM1470.49 52.48C1470.98 52.48 1471.3 52.2333 1471.43 51.74C1471.58 51.2333 1471.65 50.46 1471.65 49.42V46.62C1471.65 45.7667 1471.57 45.1133 1471.41 44.66C1471.25 44.1933 1470.92 43.96 1470.41 43.96C1469.92 43.96 1469.43 44.16 1468.95 44.56V51.96C1469.42 52.3067 1469.93 52.48 1470.49 52.48ZM1477.82 54.16C1477.38 54.16 1476.98 54.0333 1476.62 53.78C1476.27 53.5267 1476 53.1933 1475.8 52.78C1475.6 52.3667 1475.5 51.9333 1475.5 51.48C1475.5 50.5733 1475.69 49.84 1476.08 49.28C1476.46 48.7067 1476.96 48.2533 1477.56 47.92C1478.16 47.5867 1478.99 47.2067 1480.06 46.78V45.96C1480.06 45.2 1479.98 44.6667 1479.82 44.36C1479.67 44.04 1479.36 43.88 1478.9 43.88C1478.08 43.88 1477.68 44.4267 1477.68 45.52V46.1L1475.56 46.02C1475.58 44.74 1475.88 43.8 1476.44 43.2C1477 42.5867 1477.86 42.28 1479.04 42.28C1480.14 42.28 1480.94 42.5867 1481.44 43.2C1481.94 43.8 1482.2 44.7133 1482.2 45.94V51.22C1482.2 52.0867 1482.26 53.0133 1482.4 54H1480.44C1480.29 53.24 1480.2 52.6733 1480.16 52.3C1480 52.82 1479.72 53.26 1479.32 53.62C1478.93 53.98 1478.43 54.16 1477.82 54.16ZM1478.66 52.32C1478.94 52.32 1479.21 52.2133 1479.48 52C1479.74 51.7733 1479.94 51.56 1480.06 51.36V48.08C1479.48 48.4 1479.04 48.68 1478.72 48.92C1478.41 49.1467 1478.15 49.4133 1477.94 49.72C1477.74 50.0267 1477.64 50.3933 1477.64 50.82C1477.64 51.3 1477.72 51.6733 1477.9 51.94C1478.07 52.1933 1478.32 52.32 1478.66 52.32ZM1486.97 54.2C1485.92 54.2 1485.14 53.9 1484.63 53.3C1484.14 52.6867 1483.89 51.74 1483.89 50.46H1485.71C1485.71 51.2333 1485.82 51.8 1486.03 52.16C1486.26 52.5067 1486.59 52.68 1487.01 52.68C1487.49 52.68 1487.8 52.5067 1487.93 52.16C1488.08 51.8133 1488.15 51.2733 1488.15 50.54C1488.15 50.0333 1488.08 49.66 1487.93 49.42C1487.8 49.18 1487.57 49.02 1487.25 48.94C1486.93 48.8467 1486.45 48.8 1485.81 48.8V47.28C1486.72 47.28 1487.33 47.1467 1487.65 46.88C1487.99 46.6133 1488.15 46.1467 1488.15 45.48C1488.15 44.9333 1488.04 44.5267 1487.81 44.26C1487.59 43.9933 1487.28 43.86 1486.89 43.86C1486.45 43.86 1486.12 44 1485.89 44.28C1485.68 44.5467 1485.57 45.04 1485.57 45.76H1483.75C1483.75 44.52 1484.03 43.6333 1484.57 43.1C1485.13 42.5533 1485.93 42.28 1486.97 42.28C1487.97 42.28 1488.73 42.58 1489.23 43.18C1489.75 43.78 1490.01 44.5067 1490.01 45.36C1490.01 46.2667 1489.82 46.92 1489.43 47.32C1489.05 47.72 1488.59 47.9467 1488.07 48C1488.46 48.08 1488.79 48.1933 1489.05 48.34C1489.32 48.4733 1489.55 48.74 1489.73 49.14C1489.93 49.5267 1490.03 50.0933 1490.03 50.84C1490.03 51.9467 1489.78 52.7867 1489.27 53.36C1488.77 53.92 1488 54.2 1486.97 54.2ZM1491.81 42.44H1493.39L1495.95 49.54L1498.53 42.44H1500.11L1500.23 54H1498.43V47.1L1496.29 52.86H1495.63L1493.49 47.14V54H1491.69L1491.81 42.44ZM1505.54 54.16C1504.64 54.16 1503.95 53.9933 1503.46 53.66C1502.96 53.3133 1502.62 52.8067 1502.42 52.14C1502.22 51.4733 1502.12 50.6067 1502.12 49.54V46.9C1502.12 45.3 1502.36 44.1333 1502.86 43.4C1503.36 42.6533 1504.26 42.28 1505.54 42.28C1506.47 42.28 1507.17 42.4733 1507.64 42.86C1508.12 43.2467 1508.43 43.7933 1508.58 44.5C1508.74 45.1933 1508.82 46.1333 1508.82 47.32V48.26H1504.26V50.58C1504.26 51.2867 1504.36 51.8 1504.56 52.12C1504.77 52.4267 1505.1 52.58 1505.56 52.58C1506.01 52.58 1506.32 52.4267 1506.48 52.12C1506.64 51.8 1506.72 51.32 1506.72 50.68V49.98H1508.8V50.42C1508.8 51.6333 1508.54 52.56 1508.02 53.2C1507.5 53.84 1506.67 54.16 1505.54 54.16ZM1506.72 47.1V46.06C1506.72 45.2733 1506.64 44.7133 1506.48 44.38C1506.33 44.0333 1506.01 43.86 1505.52 43.86C1505.17 43.86 1504.9 43.94 1504.72 44.1C1504.54 44.26 1504.42 44.5267 1504.36 44.9C1504.29 45.26 1504.26 45.7867 1504.26 46.48V47.1H1506.72ZM1510.76 42.44H1512.9V43.36C1513.52 42.64 1514.26 42.28 1515.1 42.28C1516.15 42.28 1516.85 42.7333 1517.2 43.64C1517.56 44.5333 1517.74 45.5267 1517.74 46.62V49.42C1517.74 50.8333 1517.52 51.98 1517.08 52.86C1516.65 53.7267 1515.91 54.16 1514.86 54.16C1514.18 54.16 1513.52 53.82 1512.9 53.14V57.8H1510.76V42.44ZM1514.44 52.48C1514.93 52.48 1515.24 52.2333 1515.38 51.74C1515.52 51.2333 1515.6 50.46 1515.6 49.42V46.62C1515.6 45.7667 1515.52 45.1133 1515.36 44.66C1515.2 44.1933 1514.86 43.96 1514.36 43.96C1513.86 43.96 1513.38 44.16 1512.9 44.56V51.96C1513.36 52.3067 1513.88 52.48 1514.44 52.48ZM1521.76 54.16C1521.32 54.16 1520.92 54.0333 1520.56 53.78C1520.21 53.5267 1519.94 53.1933 1519.74 52.78C1519.54 52.3667 1519.44 51.9333 1519.44 51.48C1519.44 50.5733 1519.63 49.84 1520.02 49.28C1520.41 48.7067 1520.9 48.2533 1521.5 47.92C1522.1 47.5867 1522.93 47.2067 1524 46.78V45.96C1524 45.2 1523.92 44.6667 1523.76 44.36C1523.61 44.04 1523.31 43.88 1522.84 43.88C1522.03 43.88 1521.62 44.4267 1521.62 45.52V46.1L1519.5 46.02C1519.53 44.74 1519.82 43.8 1520.38 43.2C1520.94 42.5867 1521.81 42.28 1522.98 42.28C1524.09 42.28 1524.89 42.5867 1525.38 43.2C1525.89 43.8 1526.14 44.7133 1526.14 45.94V51.22C1526.14 52.0867 1526.21 53.0133 1526.34 54H1524.38C1524.23 53.24 1524.14 52.6733 1524.1 52.3C1523.94 52.82 1523.66 53.26 1523.26 53.62C1522.87 53.98 1522.37 54.16 1521.76 54.16ZM1522.6 52.32C1522.88 52.32 1523.15 52.2133 1523.42 52C1523.69 51.7733 1523.88 51.56 1524 51.36V48.08C1523.43 48.4 1522.98 48.68 1522.66 48.92C1522.35 49.1467 1522.09 49.4133 1521.88 49.72C1521.68 50.0267 1521.58 50.3933 1521.58 50.82C1521.58 51.3 1521.67 51.6733 1521.84 51.94C1522.01 52.1933 1522.27 52.32 1522.6 52.32ZM1528.26 42.44H1529.84L1532.4 49.54L1534.98 42.44H1536.56L1536.68 54H1534.88V47.1L1532.74 52.86H1532.08L1529.94 47.14V54H1528.14L1528.26 42.44Z" fill="white"/>
</svg>
