<svg width="180" height="74" viewBox="0 0 180 74" fill="none" xmlns="http://www.w3.org/2000/svg">
<path d="M1.52 7.8H3.74L6.6 20.94L9.48 7.8H11.68L11.98 24H10.16L9.98 12.24L7.24 24H5.96L3.24 12.24L3.06 24H1.22L1.52 7.8ZM14.2831 12.44H16.4231V17.22H16.7631C17.8698 17.2333 18.7298 17.34 19.3431 17.54C19.9565 17.7267 20.4031 18.06 20.6831 18.54C20.9765 19.02 21.1231 19.7067 21.1231 20.6C21.1231 21.4533 20.9765 22.1267 20.6831 22.62C20.3898 23.1 19.9098 23.4533 19.2431 23.68C18.5898 23.8933 17.6898 24 16.5431 24H14.2831V12.44ZM22.4431 12.44H24.5831V24H22.4431V12.44ZM16.5431 22.74C17.2365 22.74 17.7698 22.68 18.1431 22.56C18.5298 22.44 18.8031 22.2267 18.9631 21.92C19.1231 21.6133 19.2031 21.1667 19.2031 20.58C19.2031 20.0467 19.1298 19.6333 18.9831 19.34C18.8365 19.0467 18.5831 18.8333 18.2231 18.7C17.8631 18.5667 17.3365 18.4933 16.6431 18.48H16.4231V22.74H16.5431ZM31.3144 12.44H34.5544C35.661 12.44 36.4544 12.7067 36.9344 13.24C37.4277 13.7733 37.6744 14.46 37.6744 15.3C37.6744 15.9133 37.561 16.4267 37.3344 16.84C37.1077 17.24 36.7144 17.5267 36.1544 17.7C36.8077 17.8333 37.2677 18.1667 37.5344 18.7C37.8144 19.2333 37.9544 19.88 37.9544 20.64C37.9544 21.7333 37.7077 22.5667 37.2144 23.14C36.721 23.7133 35.8677 24 34.6544 24H31.3144V12.44ZM34.4544 17.1C34.8944 17.1 35.2277 16.9733 35.4544 16.72C35.681 16.4667 35.7944 16.0467 35.7944 15.46C35.7944 14.94 35.661 14.5667 35.3944 14.34C35.1277 14.1133 34.741 14 34.2344 14H33.4144V17.1H34.4544ZM34.1744 22.38C34.7077 22.38 35.121 22.2533 35.4144 22C35.7077 21.7467 35.8544 21.2667 35.8544 20.56C35.8544 19.9867 35.7877 19.5667 35.6544 19.3C35.521 19.02 35.3477 18.84 35.1344 18.76C34.921 18.68 34.6344 18.64 34.2744 18.64H33.4144V22.38H34.1744ZM47.3455 24.16C46.4388 24.16 45.7388 23.98 45.2455 23.62C44.7521 23.2467 44.4121 22.7333 44.2255 22.08C44.0521 21.4133 43.9655 20.5733 43.9655 19.56V16.9C43.9655 15.86 44.0521 15.0067 44.2255 14.34C44.4121 13.6733 44.7521 13.1667 45.2455 12.82C45.7388 12.46 46.4388 12.28 47.3455 12.28C48.1721 12.28 48.8121 12.4133 49.2655 12.68C49.7321 12.9467 50.0521 13.3467 50.2255 13.88C50.4121 14.4 50.5055 15.08 50.5055 15.92V16.6H48.5655V15.9C48.5655 15.14 48.4788 14.6133 48.3055 14.32C48.1455 14.0133 47.8321 13.86 47.3655 13.86C47.0055 13.86 46.7388 13.94 46.5655 14.1C46.3921 14.26 46.2721 14.52 46.2055 14.88C46.1388 15.24 46.1055 15.7667 46.1055 16.46V20.1C46.1055 20.7667 46.1455 21.28 46.2255 21.64C46.3055 21.9867 46.4321 22.2333 46.6055 22.38C46.7921 22.5133 47.0521 22.58 47.3855 22.58C47.8788 22.58 48.1988 22.42 48.3455 22.1C48.4921 21.7667 48.5655 21.26 48.5655 20.58V19.64H50.5055V20.44C50.5055 21.6933 50.2721 22.6267 49.8055 23.24C49.3521 23.8533 48.5321 24.16 47.3455 24.16ZM55.5881 24.16C54.3615 24.16 53.4881 23.8 52.9681 23.08C52.4615 22.3467 52.2081 21.2867 52.2081 19.9V16.54C52.2081 15.1533 52.4615 14.1 52.9681 13.38C53.4881 12.6467 54.3615 12.28 55.5881 12.28C56.8015 12.28 57.6615 12.6467 58.1681 13.38C58.6881 14.1 58.9481 15.1533 58.9481 16.54V19.9C58.9481 21.2867 58.6881 22.3467 58.1681 23.08C57.6615 23.8 56.8015 24.16 55.5881 24.16ZM55.5881 22.58C55.9748 22.58 56.2548 22.4667 56.4281 22.24C56.6015 22.0133 56.7081 21.7333 56.7481 21.4C56.7881 21.0667 56.8081 20.6133 56.8081 20.04V16.42C56.8081 15.8467 56.7881 15.3933 56.7481 15.06C56.7081 14.7133 56.6015 14.4267 56.4281 14.2C56.2548 13.9733 55.9748 13.86 55.5881 13.86C55.2015 13.86 54.9148 13.9733 54.7281 14.2C54.5548 14.4267 54.4481 14.7133 54.4081 15.06C54.3681 15.3933 54.3481 15.8467 54.3481 16.42V20.04C54.3481 20.6133 54.3681 21.0667 54.4081 21.4C54.4481 21.7333 54.5548 22.0133 54.7281 22.24C54.9148 22.4667 55.2015 22.58 55.5881 22.58ZM67.6242 24H60.9042V12.44H63.0442V22.48H65.8242V12.44H67.9642V22.48H69.3642V26.94H67.8042L67.6242 24ZM70.6113 12.44H72.4113V20.22L75.8913 12.44H77.5713V24H75.8113V16.16L72.3513 24H70.6113V12.44ZM81.8319 24.16C81.3919 24.16 80.9919 24.0333 80.6319 23.78C80.2852 23.5267 80.0119 23.1933 79.8119 22.78C79.6119 22.3667 79.5119 21.9333 79.5119 21.48C79.5119 20.5733 79.7052 19.84 80.0919 19.28C80.4785 18.7067 80.9719 18.2533 81.5719 17.92C82.1719 17.5867 83.0052 17.2067 84.0719 16.78V15.96C84.0719 15.2 83.9919 14.6667 83.8319 14.36C83.6852 14.04 83.3785 13.88 82.9119 13.88C82.0985 13.88 81.6919 14.4267 81.6919 15.52V16.1L79.5719 16.02C79.5985 14.74 79.8919 13.8 80.4519 13.2C81.0119 12.5867 81.8785 12.28 83.0519 12.28C84.1585 12.28 84.9585 12.5867 85.4519 13.2C85.9585 13.8 86.2119 14.7133 86.2119 15.94V21.22C86.2119 22.0867 86.2785 23.0133 86.4119 24H84.4519C84.3052 23.24 84.2119 22.6733 84.1719 22.3C84.0119 22.82 83.7319 23.26 83.3319 23.62C82.9452 23.98 82.4452 24.16 81.8319 24.16ZM82.6719 22.32C82.9519 22.32 83.2252 22.2133 83.4919 22C83.7585 21.7733 83.9519 21.56 84.0719 21.36V18.08C83.4985 18.4 83.0519 18.68 82.7319 18.92C82.4252 19.1467 82.1652 19.4133 81.9519 19.72C81.7519 20.0267 81.6519 20.3933 81.6519 20.82C81.6519 21.3 81.7385 21.6733 81.9119 21.94C82.0852 22.1933 82.3385 22.32 82.6719 22.32ZM87.5275 22.48C88.0608 22.48 88.4475 22.34 88.6875 22.06C88.9408 21.7667 89.1142 21.2933 89.2075 20.64C89.3142 19.9867 89.4075 18.9267 89.4875 17.46L89.7475 12.44H95.8075V24H93.6675V14.06H91.6275L91.4475 17.46C91.3542 19.3133 91.2008 20.7 90.9875 21.62C90.7742 22.5267 90.4208 23.1667 89.9275 23.54C89.4475 23.9133 88.7275 24.1 87.7675 24.1H87.5275V22.48ZM97.9745 12.44H100.115V17.22H100.455C101.561 17.2333 102.421 17.34 103.035 17.54C103.648 17.7267 104.095 18.06 104.375 18.54C104.668 19.02 104.815 19.7067 104.815 20.6C104.815 21.4533 104.668 22.1267 104.375 22.62C104.081 23.1 103.601 23.4533 102.935 23.68C102.281 23.8933 101.381 24 100.235 24H97.9745V12.44ZM100.235 22.74C100.928 22.74 101.461 22.68 101.835 22.56C102.221 22.44 102.495 22.2267 102.655 21.92C102.815 21.6133 102.895 21.1667 102.895 20.58C102.895 20.0467 102.821 19.6333 102.675 19.34C102.528 19.0467 102.275 18.8333 101.915 18.7C101.555 18.5667 101.028 18.4933 100.335 18.48H100.115V22.74H100.235ZM106.275 12.44H108.415V17.3H111.155V12.44H113.295V24H111.155V18.86H108.415V24H106.275V12.44ZM115.455 12.44H117.595V17.22H117.935C119.042 17.2333 119.902 17.34 120.515 17.54C121.128 17.7267 121.575 18.06 121.855 18.54C122.148 19.02 122.295 19.7067 122.295 20.6C122.295 21.4533 122.148 22.1267 121.855 22.62C121.562 23.1 121.082 23.4533 120.415 23.68C119.762 23.8933 118.862 24 117.715 24H115.455V12.44ZM123.615 12.44H125.755V24H123.615V12.44ZM117.715 22.74C118.408 22.74 118.942 22.68 119.315 22.56C119.702 22.44 119.975 22.2267 120.135 21.92C120.295 21.6133 120.375 21.1667 120.375 20.58C120.375 20.0467 120.302 19.6333 120.155 19.34C120.008 19.0467 119.755 18.8333 119.395 18.7C119.035 18.5667 118.508 18.4933 117.815 18.48H117.595V22.74H117.715ZM129.616 17.92L127.076 12.44H129.116L130.816 16.1L132.316 12.44H134.416L131.776 18.18L134.456 24H132.416L130.596 20.08L129.036 24H127.016L129.616 17.92ZM143.42 24.16C142.513 24.16 141.813 23.98 141.32 23.62C140.826 23.2467 140.486 22.7333 140.3 22.08C140.126 21.4133 140.04 20.5733 140.04 19.56V16.9C140.04 15.86 140.126 15.0067 140.3 14.34C140.486 13.6733 140.826 13.1667 141.32 12.82C141.813 12.46 142.513 12.28 143.42 12.28C144.246 12.28 144.886 12.4133 145.34 12.68C145.806 12.9467 146.126 13.3467 146.3 13.88C146.486 14.4 146.58 15.08 146.58 15.92V16.6H144.64V15.9C144.64 15.14 144.553 14.6133 144.38 14.32C144.22 14.0133 143.906 13.86 143.44 13.86C143.08 13.86 142.813 13.94 142.64 14.1C142.466 14.26 142.346 14.52 142.28 14.88C142.213 15.24 142.18 15.7667 142.18 16.46V20.1C142.18 20.7667 142.22 21.28 142.3 21.64C142.38 21.9867 142.506 22.2333 142.68 22.38C142.866 22.5133 143.126 22.58 143.46 22.58C143.953 22.58 144.273 22.42 144.42 22.1C144.566 21.7667 144.64 21.26 144.64 20.58V19.64H146.58V20.44C146.58 21.6933 146.346 22.6267 145.88 23.24C145.426 23.8533 144.606 24.16 143.42 24.16ZM151.682 24.16C150.789 24.16 150.096 23.9933 149.602 23.66C149.109 23.3133 148.762 22.8067 148.562 22.14C148.362 21.4733 148.262 20.6067 148.262 19.54V16.9C148.262 15.3 148.509 14.1333 149.002 13.4C149.509 12.6533 150.402 12.28 151.682 12.28C152.616 12.28 153.316 12.4733 153.782 12.86C154.262 13.2467 154.576 13.7933 154.722 14.5C154.882 15.1933 154.962 16.1333 154.962 17.32V18.26H150.402V20.58C150.402 21.2867 150.502 21.8 150.702 22.12C150.916 22.4267 151.249 22.58 151.702 22.58C152.156 22.58 152.462 22.4267 152.622 22.12C152.782 21.8 152.862 21.32 152.862 20.68V19.98H154.942V20.42C154.942 21.6333 154.682 22.56 154.162 23.2C153.642 23.84 152.816 24.16 151.682 24.16ZM152.862 17.1V16.06C152.862 15.2733 152.782 14.7133 152.622 14.38C152.476 14.0333 152.156 13.86 151.662 13.86C151.316 13.86 151.049 13.94 150.862 14.1C150.689 14.26 150.569 14.5267 150.502 14.9C150.436 15.26 150.402 15.7867 150.402 16.48V17.1H152.862ZM158.122 14.04H155.962V12.44H162.442V14.04H160.262V24H158.122V14.04ZM165.036 19.1C163.983 18.7 163.456 17.64 163.456 15.92C163.456 15.0933 163.596 14.4267 163.876 13.92C164.17 13.4133 164.643 13.04 165.296 12.8C165.963 12.56 166.85 12.44 167.956 12.44H170.196V24H168.076V19.44C167.85 19.44 167.51 19.4267 167.056 19.4L165.156 24H162.856L165.036 19.1ZM168.076 18.2V13.66H167.856C166.923 13.6733 166.276 13.8467 165.916 14.18C165.556 14.5133 165.376 15.0933 165.376 15.92C165.376 16.7067 165.55 17.28 165.896 17.64C166.256 18 166.903 18.1867 167.836 18.2H168.076ZM174.069 17.92L171.529 12.44H173.569L175.269 16.1L176.769 12.44H178.869L176.229 18.18L178.909 24H176.869L175.049 20.08L173.489 24H171.469L174.069 17.92Z" fill="white"/>
<circle cx="55" cy="58" r="15" fill="white"/>
<g clip-path="url(#clip0)">
<path d="M56.3016 64.1617C56.8091 64.1617 57.0166 63.8233 57.0108 63.3992C56.985 61.8017 57.6058 60.9417 58.7266 62.0625C59.9666 63.3025 60.2233 64.1617 61.7291 64.1617H64.3958C65.0691 64.1617 65.3341 63.945 65.3341 63.605C65.3341 62.8858 64.15 61.6167 63.1466 60.685C61.7416 59.3808 61.6758 59.35 62.8858 57.78C64.3866 55.8308 66.35 53.3333 64.6133 53.3333H61.2958C60.6525 53.3333 60.6058 53.6958 60.3766 54.2358C59.5475 56.1917 57.9716 58.725 57.3733 58.3375C56.7475 57.9333 57.0341 56.3325 57.0816 53.9533C57.0941 53.325 57.0908 52.8942 56.1308 52.6708C55.6066 52.55 55.0966 52.5 54.6233 52.5C52.7291 52.5 51.4225 53.2942 52.165 53.4325C53.4741 53.6767 53.3483 56.5092 53.0433 57.7325C52.5116 59.8625 50.5133 56.0458 49.6808 54.145C49.48 53.6883 49.4183 53.3333 48.7016 53.3333H45.9891C45.5791 53.3333 45.3333 53.4667 45.3333 53.7633C45.3333 54.265 47.8 59.3633 50.155 61.905C52.4516 64.3842 54.7216 64.1617 56.3016 64.1617Z" fill="#5A3564"/>
</g>
<circle cx="125" cy="59" r="15" fill="white"/>
<g clip-path="url(#clip1)">
<path d="M125.333 51.1359C128.003 51.1359 128.32 51.1459 129.375 51.1942C132.085 51.3175 133.351 52.6034 133.474 55.2934C133.522 56.3475 133.532 56.6642 133.532 59.3342C133.532 62.005 133.522 62.3209 133.474 63.375C133.35 66.0625 132.087 67.3509 129.375 67.4742C128.32 67.5225 128.005 67.5325 125.333 67.5325C122.663 67.5325 122.347 67.5225 121.292 67.4742C118.576 67.35 117.317 66.0584 117.193 63.3742C117.145 62.32 117.135 62.0042 117.135 59.3334C117.135 56.6634 117.146 56.3475 117.193 55.2925C117.317 52.6034 118.58 51.3167 121.292 51.1934C122.347 51.1459 122.663 51.1359 125.333 51.1359ZM125.333 49.3334C122.617 49.3334 122.277 49.345 121.211 49.3934C117.579 49.56 115.561 51.575 115.394 55.21C115.345 56.2775 115.333 56.6175 115.333 59.3334C115.333 62.0492 115.345 62.39 115.393 63.4567C115.56 67.0884 117.575 69.1067 121.21 69.2734C122.277 69.3217 122.617 69.3334 125.333 69.3334C128.049 69.3334 128.39 69.3217 129.457 69.2734C133.085 69.1067 135.108 67.0917 135.272 63.4567C135.322 62.39 135.333 62.0492 135.333 59.3334C135.333 56.6175 135.322 56.2775 135.273 55.2109C135.11 51.5825 133.092 49.5609 129.457 49.3942C128.39 49.345 128.049 49.3334 125.333 49.3334V49.3334ZM125.333 54.1984C122.497 54.1984 120.198 56.4975 120.198 59.3334C120.198 62.1692 122.497 64.4692 125.333 64.4692C128.169 64.4692 130.468 62.17 130.468 59.3334C130.468 56.4975 128.169 54.1984 125.333 54.1984ZM125.333 62.6667C123.492 62.6667 122 61.175 122 59.3334C122 57.4925 123.492 56 125.333 56C127.174 56 128.667 57.4925 128.667 59.3334C128.667 61.175 127.174 62.6667 125.333 62.6667ZM130.672 52.7959C130.008 52.7959 129.471 53.3334 129.471 53.9959C129.471 54.6584 130.008 55.1959 130.672 55.1959C131.334 55.1959 131.871 54.6584 131.871 53.9959C131.871 53.3334 131.334 52.7959 130.672 52.7959Z" fill="#5A3564"/>
</g>
<defs>
<clipPath id="clip0">
<rect width="20" height="20" fill="white" transform="translate(45.3333 48.3334)"/>
</clipPath>
<clipPath id="clip1">
<rect width="20" height="20" fill="white" transform="translate(115.333 49.3334)"/>
</clipPath>
</defs>
</svg>
