<svg width="196" height="114" viewBox="0 0 196 114" fill="none" xmlns="http://www.w3.org/2000/svg">
<path d="M22.35 9.8C21.7833 9.83333 21.375 9.9 21.125 10C20.875 10.1 20.7 10.2917 20.6 10.575C20.5167 10.8583 20.475 11.3167 20.475 11.95V24.35C20.475 24.9833 20.5167 25.4417 20.6 25.725C20.7 26.0083 20.875 26.2 21.125 26.3C21.3917 26.4 21.8 26.4667 22.35 26.5V27C21.4333 26.95 20.125 26.925 18.425 26.925C16.6417 26.925 15.325 26.95 14.475 27V26.5C15.075 26.4667 15.5083 26.4 15.775 26.3C16.0583 26.2 16.25 26.0083 16.35 25.725C16.45 25.4417 16.5 24.9833 16.5 24.35V11.275L10.475 27.025H10.075L3.325 10.925V22.9C3.325 23.8833 3.375 24.6083 3.475 25.075C3.575 25.525 3.79167 25.8583 4.125 26.075C4.45833 26.275 5 26.4167 5.75 26.5V27C5.1 26.95 4.2 26.925 3.05 26.925C2.13333 26.925 1.40833 26.95 0.875 27V26.5C1.425 26.4167 1.825 26.275 2.075 26.075C2.34167 25.875 2.51667 25.5583 2.6 25.125C2.7 24.6917 2.75 24.05 2.75 23.2V11.95C2.75 11.3167 2.7 10.8583 2.6 10.575C2.51667 10.2917 2.34167 10.1 2.075 10C1.825 9.9 1.425 9.83333 0.875 9.8V9.3C1.40833 9.35 2.13333 9.375 3.05 9.375C4.58333 9.375 5.9 9.35 7 9.3L12.05 21.475L16.65 9.375H18.425C20.125 9.375 21.4333 9.35 22.35 9.3V9.8ZM38.9439 14.625C38.3606 14.625 37.9439 14.7583 37.6939 15.025C37.4606 15.275 37.3439 15.7417 37.3439 16.425V24.675C37.3439 25.3583 37.4606 25.8333 37.6939 26.1C37.9439 26.35 38.3606 26.475 38.9439 26.475V27C37.2773 26.9333 36.1773 26.9 35.6439 26.9C35.1439 26.9 34.0606 26.9333 32.3939 27V26.475C32.8939 26.475 33.2439 26.35 33.4439 26.1C33.6439 25.8333 33.7439 25.3583 33.7439 24.675V17.1L28.9939 25.15C29.0273 25.65 29.1439 26 29.3439 26.2C29.5606 26.3833 29.8856 26.475 30.3189 26.475V27C28.7856 26.9333 27.7523 26.9 27.2189 26.9C26.7189 26.9 25.5689 26.9333 23.7689 27V26.475C24.3689 26.475 24.7856 26.35 25.0189 26.1C25.2523 25.8333 25.3689 25.3583 25.3689 24.675V16.425C25.3689 15.7417 25.2523 15.275 25.0189 15.025C24.7856 14.7583 24.3689 14.625 23.7689 14.625V14.1C25.5023 14.1667 26.6023 14.2 27.0689 14.2C27.6356 14.2 28.7189 14.1667 30.3189 14.1V14.625C29.8189 14.625 29.4689 14.7583 29.2689 15.025C29.0689 15.275 28.9689 15.7417 28.9689 16.425V24.225L33.7439 16.15C33.7273 15.5667 33.6106 15.1667 33.3939 14.95C33.1939 14.7333 32.8606 14.625 32.3939 14.625V14.1C33.9939 14.1667 35.0273 14.2 35.4939 14.2C36.0606 14.2 37.2106 14.1667 38.9439 14.1V14.625ZM49.1258 13.725C49.9924 13.725 50.7591 13.9583 51.4258 14.425C52.1091 14.8917 52.6424 15.5917 53.0258 16.525C53.4091 17.4583 53.6008 18.6 53.6008 19.95C53.6008 22.3333 53.0758 24.1667 52.0258 25.45C50.9924 26.7167 49.5841 27.35 47.8008 27.35C47.3008 27.35 46.8258 27.2833 46.3758 27.15C45.9424 27.0167 45.5674 26.8167 45.2508 26.55V29.05C45.2508 29.7833 45.4341 30.2917 45.8008 30.575C46.1674 30.8583 46.7341 31 47.5008 31V31.525L46.8258 31.5C44.9758 31.45 43.8008 31.425 43.3008 31.425C42.8008 31.425 41.7508 31.4583 40.1508 31.525V31C40.7008 31 41.0841 30.875 41.3008 30.625C41.5341 30.3917 41.6508 29.95 41.6508 29.3V16.8C41.6508 16.0333 41.5258 15.475 41.2758 15.125C41.0424 14.775 40.6341 14.6 40.0508 14.6V14.075C40.5841 14.125 41.1008 14.15 41.6008 14.15C43.0508 14.15 44.2674 14.0333 45.2508 13.8V16.1C45.6008 15.3333 46.1091 14.75 46.7758 14.35C47.4424 13.9333 48.2258 13.725 49.1258 13.725ZM46.8258 26.675C47.8924 26.675 48.6591 26.15 49.1258 25.1C49.5924 24.0333 49.8258 22.4833 49.8258 20.45C49.8258 18.4167 49.6341 16.9667 49.2508 16.1C48.8841 15.2333 48.3508 14.8 47.6508 14.8C47.0841 14.8 46.5758 14.9917 46.1258 15.375C45.6924 15.7583 45.4008 16.2917 45.2508 16.975V26C45.6508 26.45 46.1758 26.675 46.8258 26.675ZM75.651 24.9C75.8676 25.45 76.1176 25.85 76.401 26.1C76.6843 26.35 76.9593 26.4833 77.226 26.5V27C76.226 26.95 74.9593 26.925 73.426 26.925C71.726 26.925 70.4593 26.95 69.626 27V26.5C70.2593 26.4667 70.7093 26.3917 70.976 26.275C71.2426 26.1417 71.376 25.9167 71.376 25.6C71.376 25.3 71.276 24.9 71.076 24.4L69.576 20.3H64.126L63.476 22.025C63.0093 23.225 62.776 24.15 62.776 24.8C62.776 25.4167 62.9593 25.85 63.326 26.1C63.7093 26.3333 64.2676 26.4667 65.001 26.5V27C63.8676 26.95 62.8343 26.925 61.901 26.925C61.1343 26.925 60.501 26.95 60.001 27V26.5C60.8176 26.35 61.5343 25.475 62.151 23.875L67.851 9.25C68.0343 9.26667 68.326 9.275 68.726 9.275C69.126 9.275 69.4093 9.26667 69.576 9.25L75.651 24.9ZM69.401 19.8L66.926 13.05L64.326 19.8H69.401ZM90.5275 25.1C90.7275 25.5667 90.9275 25.9 91.1275 26.1C91.3275 26.3 91.6192 26.425 92.0025 26.475V27C91.3859 27.1 90.7942 27.15 90.2275 27.15C89.2442 27.15 88.4692 26.9583 87.9025 26.575C87.3525 26.1917 86.9692 25.5667 86.7525 24.7C86.5692 24.0167 86.3859 23.4 86.2025 22.85C86.0192 22.3 85.7775 21.8417 85.4775 21.475C85.2109 21.1417 84.8525 20.9083 84.4025 20.775C83.9692 20.625 83.4275 20.5667 82.7775 20.6V24.675C82.7775 25.3583 82.8859 25.8333 83.1025 26.1C83.3192 26.35 83.7109 26.475 84.2775 26.475V27C82.5442 26.9333 81.4275 26.9 80.9275 26.9C80.4275 26.9 79.3109 26.9333 77.5775 27V26.475C78.1775 26.475 78.5942 26.35 78.8275 26.1C79.0609 25.8333 79.1775 25.3583 79.1775 24.675V16.425C79.1775 15.7417 79.0609 15.275 78.8275 15.025C78.5942 14.7583 78.1775 14.625 77.5775 14.625V14.1C79.3775 14.1667 80.5275 14.2 81.0275 14.2C81.5942 14.2 82.6775 14.1667 84.2775 14.1V14.625C83.7109 14.625 83.3192 14.7583 83.1025 15.025C82.8859 15.275 82.7775 15.7417 82.7775 16.425V20.15C83.5109 20.1 84.0775 19.9667 84.4775 19.75C84.8942 19.5167 85.2025 19.2083 85.4025 18.825C85.6025 18.425 85.8109 17.85 86.0275 17.1C86.2609 16.2833 86.4692 15.6583 86.6525 15.225C86.8525 14.775 87.1442 14.4167 87.5275 14.15C87.9109 13.8667 88.4359 13.725 89.1025 13.725C89.8859 13.725 90.4692 13.9083 90.8525 14.275C91.2525 14.625 91.4525 15.1 91.4525 15.7C91.4525 16.2833 91.2775 16.75 90.9275 17.1C90.5942 17.45 90.1442 17.625 89.5775 17.625C89.0442 17.625 88.5692 17.4667 88.1525 17.15C87.7525 16.8333 87.5525 16.375 87.5525 15.775C87.5525 15.5083 87.6192 15.2583 87.7525 15.025C87.8859 14.775 88.1025 14.5667 88.4025 14.4C88.0359 14.4333 87.7525 14.55 87.5525 14.75C87.3525 14.9333 87.1859 15.1833 87.0525 15.5C86.9359 15.8 86.7775 16.2833 86.5775 16.95L86.4025 17.525C86.1859 18.225 85.9609 18.7667 85.7275 19.15C85.5109 19.5333 85.1609 19.8333 84.6775 20.05C84.8275 20.0333 85.0525 20.025 85.3525 20.025C87.0525 20.025 88.2859 20.5167 89.0525 21.5C89.2359 21.75 89.3942 22.0333 89.5275 22.35C89.6609 22.65 89.8275 23.0917 90.0275 23.675C90.2609 24.375 90.4275 24.85 90.5275 25.1ZM100.859 20.3C102.626 20.3667 103.892 20.6667 104.659 21.2C105.442 21.7333 105.834 22.5167 105.834 23.55C105.834 25.85 104.067 27 100.534 27C100.251 27 99.6923 26.9833 98.859 26.95C97.8257 26.9167 96.9923 26.9 96.359 26.9C95.8757 26.9 94.734 26.9333 92.934 27V26.475C93.534 26.475 93.9507 26.35 94.184 26.1C94.4173 25.8333 94.534 25.3583 94.534 24.675V16.425C94.534 15.7417 94.4173 15.275 94.184 15.025C93.9507 14.7583 93.534 14.625 92.934 14.625V14.1C94.6673 14.1667 95.759 14.2 96.209 14.2C96.809 14.2 97.5923 14.1833 98.559 14.15C99.359 14.1167 99.9007 14.1 100.184 14.1C103.551 14.1 105.234 15.0833 105.234 17.05C105.234 17.8667 104.859 18.575 104.109 19.175C103.376 19.7583 102.292 20.1333 100.859 20.3ZM99.434 14.625C98.934 14.625 98.5923 14.75 98.409 15C98.2257 15.2333 98.134 15.7083 98.134 16.425V20.225H98.534C99.3507 20.2083 99.9757 20.0917 100.409 19.875C100.859 19.6583 101.167 19.35 101.334 18.95C101.501 18.55 101.584 18.0083 101.584 17.325C101.584 16.4583 101.434 15.7917 101.134 15.325C100.834 14.8583 100.267 14.625 99.434 14.625ZM99.509 26.475C101.259 26.475 102.134 25.5083 102.134 23.575C102.134 22.5417 101.892 21.8083 101.409 21.375C100.926 20.925 100.184 20.7 99.184 20.7H98.134V24.675C98.134 25.3917 98.2257 25.875 98.409 26.125C98.609 26.3583 98.9757 26.475 99.509 26.475ZM110.565 27.175C109.498 27.175 108.698 26.9 108.165 26.35C107.648 25.8 107.39 25.075 107.39 24.175C107.39 23.425 107.582 22.8083 107.965 22.325C108.365 21.825 108.84 21.4417 109.39 21.175C109.957 20.9083 110.673 20.625 111.54 20.325C112.457 20.0083 113.123 19.725 113.54 19.475C113.973 19.2083 114.19 18.85 114.19 18.4V16.45C114.19 15.75 114.023 15.2083 113.69 14.825C113.373 14.425 112.873 14.225 112.19 14.225C111.39 14.225 110.782 14.425 110.365 14.825C110.832 14.9917 111.19 15.2417 111.44 15.575C111.707 15.9083 111.84 16.3 111.84 16.75C111.84 17.3167 111.648 17.7667 111.265 18.1C110.882 18.4333 110.415 18.6 109.865 18.6C109.282 18.6 108.832 18.4167 108.515 18.05C108.198 17.6833 108.04 17.225 108.04 16.675C108.04 16.2083 108.148 15.8167 108.365 15.5C108.598 15.1667 108.948 14.8583 109.415 14.575C109.865 14.3083 110.415 14.1 111.065 13.95C111.732 13.8 112.457 13.725 113.24 13.725C114.057 13.725 114.765 13.8083 115.365 13.975C115.965 14.1417 116.465 14.425 116.865 14.825C117.232 15.1917 117.473 15.6417 117.59 16.175C117.723 16.7083 117.79 17.4333 117.79 18.35V25.15C117.79 25.55 117.823 25.8333 117.89 26C117.973 26.1667 118.123 26.25 118.34 26.25C118.59 26.25 118.89 26.1083 119.24 25.825L119.49 26.25C118.74 26.8667 117.823 27.175 116.74 27.175C115.823 27.175 115.182 26.9917 114.815 26.625C114.448 26.2583 114.257 25.7667 114.24 25.15C113.407 26.5 112.182 27.175 110.565 27.175ZM112.49 25.575C113.14 25.575 113.707 25.2333 114.19 24.55V19.425C113.99 19.7583 113.565 20.125 112.915 20.525C112.265 20.9417 111.773 21.3583 111.44 21.775C111.107 22.1917 110.94 22.7917 110.94 23.575C110.94 24.2583 111.082 24.7667 111.365 25.1C111.648 25.4167 112.023 25.575 112.49 25.575ZM129.179 13.725C130.046 13.725 130.813 13.9583 131.479 14.425C132.163 14.8917 132.696 15.5917 133.079 16.525C133.463 17.4583 133.654 18.6 133.654 19.95C133.654 22.3333 133.129 24.1667 132.079 25.45C131.046 26.7167 129.638 27.35 127.854 27.35C127.354 27.35 126.879 27.2833 126.429 27.15C125.996 27.0167 125.621 26.8167 125.304 26.55V29.05C125.304 29.7833 125.488 30.2917 125.854 30.575C126.221 30.8583 126.788 31 127.554 31V31.525L126.879 31.5C125.029 31.45 123.854 31.425 123.354 31.425C122.854 31.425 121.804 31.4583 120.204 31.525V31C120.754 31 121.138 30.875 121.354 30.625C121.588 30.3917 121.704 29.95 121.704 29.3V16.8C121.704 16.0333 121.579 15.475 121.329 15.125C121.096 14.775 120.688 14.6 120.104 14.6V14.075C120.638 14.125 121.154 14.15 121.654 14.15C123.104 14.15 124.321 14.0333 125.304 13.8V16.1C125.654 15.3333 126.163 14.75 126.829 14.35C127.496 13.9333 128.279 13.725 129.179 13.725ZM126.879 26.675C127.946 26.675 128.713 26.15 129.179 25.1C129.646 24.0333 129.879 22.4833 129.879 20.45C129.879 18.4167 129.688 16.9667 129.304 16.1C128.938 15.2333 128.404 14.8 127.704 14.8C127.138 14.8 126.629 14.9917 126.179 15.375C125.746 15.7583 125.454 16.2917 125.304 16.975V26C125.704 26.45 126.229 26.675 126.879 26.675ZM150.37 14.625C149.786 14.625 149.37 14.7583 149.12 15.025C148.886 15.275 148.77 15.7417 148.77 16.425V24.675C148.77 25.3583 148.886 25.8333 149.12 26.1C149.37 26.35 149.786 26.475 150.37 26.475V27C148.703 26.9333 147.603 26.9 147.07 26.9C146.57 26.9 145.486 26.9333 143.82 27V26.475C144.32 26.475 144.67 26.35 144.87 26.1C145.07 25.8333 145.17 25.3583 145.17 24.675V17.1L140.42 25.15C140.453 25.65 140.57 26 140.77 26.2C140.986 26.3833 141.311 26.475 141.745 26.475V27C140.211 26.9333 139.178 26.9 138.645 26.9C138.145 26.9 136.995 26.9333 135.195 27V26.475C135.795 26.475 136.211 26.35 136.445 26.1C136.678 25.8333 136.795 25.3583 136.795 24.675V16.425C136.795 15.7417 136.678 15.275 136.445 15.025C136.211 14.7583 135.795 14.625 135.195 14.625V14.1C136.928 14.1667 138.028 14.2 138.495 14.2C139.061 14.2 140.145 14.1667 141.745 14.1V14.625C141.245 14.625 140.895 14.7583 140.695 15.025C140.495 15.275 140.395 15.7417 140.395 16.425V24.225L145.17 16.15C145.153 15.5667 145.036 15.1667 144.82 14.95C144.62 14.7333 144.286 14.625 143.82 14.625V14.1C145.42 14.1667 146.453 14.2 146.92 14.2C147.486 14.2 148.636 14.1667 150.37 14.1V14.625ZM161.877 14.15C162.71 14.15 163.352 14.125 163.802 14.075V14.575C163.452 14.675 163.135 14.8917 162.852 15.225C162.585 15.5417 162.327 16.0417 162.077 16.725L157.602 29.3C157.268 30.1667 156.902 30.7583 156.502 31.075C156.018 31.4917 155.293 31.7 154.327 31.7C153.627 31.7 152.993 31.525 152.427 31.175C151.877 30.8417 151.602 30.35 151.602 29.7C151.602 29.1833 151.785 28.7667 152.152 28.45C152.518 28.15 153.002 28 153.602 28C154.168 28 154.618 28.1333 154.952 28.4C155.302 28.6833 155.477 29.075 155.477 29.575C155.477 29.925 155.368 30.2417 155.152 30.525C154.935 30.825 154.627 31.05 154.227 31.2C154.343 31.2167 154.535 31.225 154.802 31.225C155.835 31.225 156.593 30.5667 157.077 29.25L157.477 28.05L152.177 16C151.91 15.4333 151.652 15.0583 151.402 14.875C151.152 14.6917 150.893 14.6 150.627 14.6V14.075C151.727 14.175 152.868 14.225 154.052 14.225C155.035 14.225 156.193 14.175 157.527 14.075V14.6C156.993 14.6 156.593 14.6417 156.327 14.725C156.077 14.7917 155.952 14.9833 155.952 15.3C155.952 15.4833 156.01 15.7167 156.127 16L159.177 23.375L160.902 18.575C161.168 17.7917 161.302 17.125 161.302 16.575C161.302 15.3583 160.685 14.6917 159.452 14.575V14.075C160.235 14.125 161.043 14.15 161.877 14.15ZM181.815 14.6C181.399 14.6167 181.082 14.675 180.865 14.775C180.665 14.875 180.524 15.0583 180.44 15.325C180.357 15.5917 180.315 15.9917 180.315 16.525V24.55C180.315 25.0833 180.357 25.4833 180.44 25.75C180.524 26.0167 180.665 26.2 180.865 26.3C181.082 26.4 181.399 26.4583 181.815 26.475V27L181.24 26.975C179.84 26.925 178.957 26.9 178.59 26.9C178.224 26.9 177.24 26.925 175.64 26.975L175.065 27V26.475C175.515 26.4583 175.857 26.4 176.09 26.3C176.324 26.2 176.482 26.0167 176.565 25.75C176.665 25.4833 176.715 25.0833 176.715 24.55V15.525L171.94 27.125H171.54L166.765 15.675V23.45C166.765 24.5167 166.915 25.2833 167.215 25.75C167.532 26.2167 168.157 26.4667 169.09 26.5V27C168.39 26.95 167.532 26.925 166.515 26.925C165.665 26.925 164.99 26.95 164.49 27V26.5C165.174 26.4667 165.632 26.2 165.865 25.7C166.099 25.1833 166.215 24.3833 166.215 23.3V16.725C166.215 16.0917 166.174 15.6333 166.09 15.35C166.007 15.0667 165.849 14.875 165.615 14.775C165.382 14.675 165.007 14.6083 164.49 14.575V14.075C164.99 14.125 165.665 14.15 166.515 14.15C167.799 14.15 168.915 14.125 169.865 14.075L173.265 22.6L176.715 14.15C177.132 14.1667 177.807 14.175 178.74 14.175C179.89 14.175 180.915 14.1417 181.815 14.075V14.6ZM186.42 27.175C185.353 27.175 184.553 26.9 184.02 26.35C183.503 25.8 183.245 25.075 183.245 24.175C183.245 23.425 183.436 22.8083 183.82 22.325C184.22 21.825 184.695 21.4417 185.245 21.175C185.811 20.9083 186.528 20.625 187.395 20.325C188.311 20.0083 188.978 19.725 189.395 19.475C189.828 19.2083 190.045 18.85 190.045 18.4V16.45C190.045 15.75 189.878 15.2083 189.545 14.825C189.228 14.425 188.728 14.225 188.045 14.225C187.245 14.225 186.636 14.425 186.22 14.825C186.686 14.9917 187.045 15.2417 187.295 15.575C187.561 15.9083 187.695 16.3 187.695 16.75C187.695 17.3167 187.503 17.7667 187.12 18.1C186.736 18.4333 186.27 18.6 185.72 18.6C185.136 18.6 184.686 18.4167 184.37 18.05C184.053 17.6833 183.895 17.225 183.895 16.675C183.895 16.2083 184.003 15.8167 184.22 15.5C184.453 15.1667 184.803 14.8583 185.27 14.575C185.72 14.3083 186.27 14.1 186.92 13.95C187.586 13.8 188.311 13.725 189.095 13.725C189.911 13.725 190.62 13.8083 191.22 13.975C191.82 14.1417 192.32 14.425 192.72 14.825C193.086 15.1917 193.328 15.6417 193.445 16.175C193.578 16.7083 193.645 17.4333 193.645 18.35V25.15C193.645 25.55 193.678 25.8333 193.745 26C193.828 26.1667 193.978 26.25 194.195 26.25C194.445 26.25 194.745 26.1083 195.095 25.825L195.345 26.25C194.595 26.8667 193.678 27.175 192.595 27.175C191.678 27.175 191.036 26.9917 190.67 26.625C190.303 26.2583 190.111 25.7667 190.095 25.15C189.261 26.5 188.036 27.175 186.42 27.175ZM188.345 25.575C188.995 25.575 189.561 25.2333 190.045 24.55V19.425C189.845 19.7583 189.42 20.125 188.77 20.525C188.12 20.9417 187.628 21.3583 187.295 21.775C186.961 22.1917 186.795 22.7917 186.795 23.575C186.795 24.2583 186.936 24.7667 187.22 25.1C187.503 25.4167 187.878 25.575 188.345 25.575Z" fill="white"/>
<path d="M0.9 83.26C1.7 83.26 2.24667 83.2 2.54 83.08C2.84667 82.96 3 82.7333 3 82.4C3 82.24 2.85333 81.5333 2.56 80.28L0.24 70.44H2.4L3.96 79.08L5.46 70.44H7.62L4.86 82.64C4.67333 83.4533 4.28 84.0333 3.68 84.38C3.08 84.7267 2.24 84.9 1.16 84.9H0.9V83.26ZM7.72281 80.48C8.25615 80.48 8.64281 80.34 8.88281 80.06C9.13615 79.7667 9.30948 79.2933 9.40281 78.64C9.50948 77.9867 9.60281 76.9267 9.68281 75.46L9.94281 70.44H16.0028V82H13.8628V72.06H11.8228L11.6428 75.46C11.5495 77.3133 11.3961 78.7 11.1828 79.62C10.9695 80.5267 10.6161 81.1667 10.1228 81.54C9.64281 81.9133 8.92281 82.1 7.96281 82.1H7.72281V80.48ZM18.0698 79.62H20.2098V82H18.0698V79.62ZM26.6897 65.8H33.6497V67.44H28.9497V72.54H29.4497C30.6764 72.54 31.663 72.68 32.4097 72.96C33.1564 73.24 33.7164 73.72 34.0897 74.4C34.463 75.08 34.6497 76.0333 34.6497 77.26C34.6497 78.9267 34.243 80.1333 33.4297 80.88C32.6164 81.6267 31.3297 82 29.5697 82H26.6897V65.8ZM29.5897 80.38C30.3097 80.38 30.8697 80.3 31.2697 80.14C31.683 79.98 31.9897 79.6733 32.1897 79.22C32.403 78.7667 32.5097 78.1067 32.5097 77.24C32.5097 76.48 32.4164 75.8867 32.2297 75.46C32.0564 75.02 31.7497 74.7 31.3097 74.5C30.883 74.2867 30.2897 74.18 29.5297 74.18H28.9497V80.38H29.5897ZM39.5925 82.16C38.6992 82.16 38.0058 81.9933 37.5125 81.66C37.0192 81.3133 36.6725 80.8067 36.4725 80.14C36.2725 79.4733 36.1725 78.6067 36.1725 77.54V74.9C36.1725 73.3 36.4192 72.1333 36.9125 71.4C37.4192 70.6533 38.3125 70.28 39.5925 70.28C40.5258 70.28 41.2258 70.4733 41.6925 70.86C42.1725 71.2467 42.4858 71.7933 42.6325 72.5C42.7925 73.1933 42.8725 74.1333 42.8725 75.32V76.26H38.3125V78.58C38.3125 79.2867 38.4125 79.8 38.6125 80.12C38.8258 80.4267 39.1592 80.58 39.6125 80.58C40.0658 80.58 40.3725 80.4267 40.5325 80.12C40.6925 79.8 40.7725 79.32 40.7725 78.68V77.98H42.8525V78.42C42.8525 79.6333 42.5925 80.56 42.0725 81.2C41.5525 81.84 40.7258 82.16 39.5925 82.16ZM40.7725 75.1V74.06C40.7725 73.2733 40.6925 72.7133 40.5325 72.38C40.3858 72.0333 40.0658 71.86 39.5725 71.86C39.2258 71.86 38.9592 71.94 38.7725 72.1C38.5992 72.26 38.4792 72.5267 38.4125 72.9C38.3458 73.26 38.3125 73.7867 38.3125 74.48V75.1H40.7725ZM44.0705 80.48C44.6038 80.48 44.9905 80.34 45.2305 80.06C45.4838 79.7667 45.6571 79.2933 45.7505 78.64C45.8571 77.9867 45.9505 76.9267 46.0305 75.46L46.2905 70.44H52.3505V82H50.2105V72.06H48.1705L47.9905 75.46C47.8971 77.3133 47.7438 78.7 47.5305 79.62C47.3171 80.5267 46.9638 81.1667 46.4705 81.54C45.9905 81.9133 45.2705 82.1 44.3105 82.1H44.0705V80.48ZM54.5175 70.44H56.3175V78.22L59.7975 70.44H61.4775V82H59.7175V74.16L56.2575 82H54.5175V70.44ZM63.6581 70.44H65.7981V75.3H68.5381V70.44H70.6781V82H68.5381V76.86H65.7981V82H63.6581V70.44ZM75.9978 82.16C75.0911 82.16 74.3911 81.98 73.8978 81.62C73.4045 81.2467 73.0645 80.7333 72.8778 80.08C72.7045 79.4133 72.6178 78.5733 72.6178 77.56V74.9C72.6178 73.86 72.7045 73.0067 72.8778 72.34C73.0645 71.6733 73.4045 71.1667 73.8978 70.82C74.3911 70.46 75.0911 70.28 75.9978 70.28C76.8245 70.28 77.4645 70.4133 77.9178 70.68C78.3845 70.9467 78.7045 71.3467 78.8778 71.88C79.0645 72.4 79.1578 73.08 79.1578 73.92V74.6H77.2178V73.9C77.2178 73.14 77.1311 72.6133 76.9578 72.32C76.7978 72.0133 76.4845 71.86 76.0178 71.86C75.6578 71.86 75.3911 71.94 75.2178 72.1C75.0445 72.26 74.9245 72.52 74.8578 72.88C74.7911 73.24 74.7578 73.7667 74.7578 74.46V78.1C74.7578 78.7667 74.7978 79.28 74.8778 79.64C74.9578 79.9867 75.0845 80.2333 75.2578 80.38C75.4445 80.5133 75.7045 80.58 76.0378 80.58C76.5311 80.58 76.8511 80.42 76.9978 80.1C77.1445 79.7667 77.2178 79.26 77.2178 78.58V77.64H79.1578V78.44C79.1578 79.6933 78.9245 80.6267 78.4578 81.24C78.0045 81.8533 77.1845 82.16 75.9978 82.16ZM81.0605 70.44H83.2005V75.32H83.8005L85.9805 70.44H88.1805L85.7605 76.04L88.2205 82H85.9805L83.8005 76.6H83.2005V82H81.0605V70.44ZM92.5413 82.16C91.3146 82.16 90.4413 81.8 89.9213 81.08C89.4146 80.3467 89.1613 79.2867 89.1613 77.9V74.54C89.1613 73.1533 89.4146 72.1 89.9213 71.38C90.4413 70.6467 91.3146 70.28 92.5413 70.28C93.7546 70.28 94.6146 70.6467 95.1213 71.38C95.6413 72.1 95.9013 73.1533 95.9013 74.54V77.9C95.9013 79.2867 95.6413 80.3467 95.1213 81.08C94.6146 81.8 93.7546 82.16 92.5413 82.16ZM92.5413 80.58C92.9279 80.58 93.2079 80.4667 93.3813 80.24C93.5546 80.0133 93.6613 79.7333 93.7013 79.4C93.7413 79.0667 93.7613 78.6133 93.7613 78.04V74.42C93.7613 73.8467 93.7413 73.3933 93.7013 73.06C93.6613 72.7133 93.5546 72.4267 93.3813 72.2C93.2079 71.9733 92.9279 71.86 92.5413 71.86C92.1546 71.86 91.8679 71.9733 91.6813 72.2C91.5079 72.4267 91.4013 72.7133 91.3613 73.06C91.3213 73.3933 91.3013 73.8467 91.3013 74.42V78.04C91.3013 78.6133 91.3213 79.0667 91.3613 79.4C91.4013 79.7333 91.5079 80.0133 91.6813 80.24C91.8679 80.4667 92.1546 80.58 92.5413 80.58ZM97.8573 70.44H102.517V71.98H99.9973V82H97.8573V70.44ZM106.799 82.16C105.572 82.16 104.699 81.8 104.179 81.08C103.672 80.3467 103.419 79.2867 103.419 77.9V74.54C103.419 73.1533 103.672 72.1 104.179 71.38C104.699 70.6467 105.572 70.28 106.799 70.28C108.012 70.28 108.872 70.6467 109.379 71.38C109.899 72.1 110.159 73.1533 110.159 74.54V77.9C110.159 79.2867 109.899 80.3467 109.379 81.08C108.872 81.8 108.012 82.16 106.799 82.16ZM106.799 80.58C107.186 80.58 107.466 80.4667 107.639 80.24C107.812 80.0133 107.919 79.7333 107.959 79.4C107.999 79.0667 108.019 78.6133 108.019 78.04V74.42C108.019 73.8467 107.999 73.3933 107.959 73.06C107.919 72.7133 107.812 72.4267 107.639 72.2C107.466 71.9733 107.186 71.86 106.799 71.86C106.412 71.86 106.126 71.9733 105.939 72.2C105.766 72.4267 105.659 72.7133 105.619 73.06C105.579 73.3933 105.559 73.8467 105.559 74.42V78.04C105.559 78.6133 105.579 79.0667 105.619 79.4C105.659 79.7333 105.766 80.0133 105.939 80.24C106.126 80.4667 106.412 80.58 106.799 80.58ZM111.835 83.7C112.195 83.58 112.475 83.3667 112.675 83.06C112.888 82.7667 112.995 82.4133 112.995 82H111.855V79.7H114.055V81.96C114.055 82.6667 113.902 83.2267 113.595 83.64C113.288 84.0667 112.815 84.3933 112.175 84.62L111.835 83.7ZM122.756 68.6C122.729 68.64 122.323 68.7333 121.536 68.88C120.763 69.0267 120.229 69.1267 119.936 69.18V67.56C121.563 67.1733 122.676 66.5867 123.276 65.8H124.896V82H122.756V68.6ZM130.686 68.6C130.659 68.64 130.252 68.7333 129.466 68.88C128.692 69.0267 128.159 69.1267 127.866 69.18V67.56C129.492 67.1733 130.606 66.5867 131.206 65.8H132.826V82H130.686V68.6ZM140.375 82.18C139.042 82.18 138.035 81.7467 137.355 80.88C136.689 80.0133 136.355 78.8533 136.355 77.4V70.42C136.355 68.94 136.682 67.78 137.335 66.94C138.002 66.0867 139.015 65.66 140.375 65.66C141.722 65.66 142.722 66.0867 143.375 66.94C144.042 67.78 144.375 68.94 144.375 70.42V77.4C144.375 78.8667 144.042 80.0333 143.375 80.9C142.709 81.7533 141.709 82.18 140.375 82.18ZM140.375 80.42C141.602 80.42 142.215 79.42 142.215 77.42V70.4C142.215 69.48 142.082 68.7533 141.815 68.22C141.562 67.6733 141.082 67.4 140.375 67.4C139.669 67.4 139.182 67.6733 138.915 68.22C138.649 68.7533 138.515 69.48 138.515 70.4V77.42C138.515 79.42 139.135 80.42 140.375 80.42Z" fill="white"/>
<path d="M2.38 99.04H0.22V97.44H6.7V99.04H4.52V109H2.38V99.04ZM11.0769 109.16C10.1835 109.16 9.49021 108.993 8.99688 108.66C8.50354 108.313 8.15688 107.807 7.95688 107.14C7.75688 106.473 7.65688 105.607 7.65688 104.54V101.9C7.65688 100.3 7.90354 99.1333 8.39688 98.4C8.90354 97.6533 9.79688 97.28 11.0769 97.28C12.0102 97.28 12.7102 97.4733 13.1769 97.86C13.6569 98.2467 13.9702 98.7933 14.1169 99.5C14.2769 100.193 14.3569 101.133 14.3569 102.32V103.26H9.79688V105.58C9.79688 106.287 9.89688 106.8 10.0969 107.12C10.3102 107.427 10.6435 107.58 11.0969 107.58C11.5502 107.58 11.8569 107.427 12.0169 107.12C12.1769 106.8 12.2569 106.32 12.2569 105.68V104.98H14.3369V105.42C14.3369 106.633 14.0769 107.56 13.5569 108.2C13.0369 108.84 12.2102 109.16 11.0769 109.16ZM12.2569 102.1V101.06C12.2569 100.273 12.1769 99.7133 12.0169 99.38C11.8702 99.0333 11.5502 98.86 11.0569 98.86C10.7102 98.86 10.4435 98.94 10.2569 99.1C10.0835 99.26 9.96354 99.5267 9.89688 99.9C9.83021 100.26 9.79688 100.787 9.79688 101.48V102.1H12.2569ZM15.5548 107.48C16.0882 107.48 16.4748 107.34 16.7148 107.06C16.9682 106.767 17.1415 106.293 17.2348 105.64C17.3415 104.987 17.4348 103.927 17.5148 102.46L17.7748 97.44H23.8348V109H21.6948V99.06H19.6548L19.4748 102.46C19.3815 104.313 19.2282 105.7 19.0148 106.62C18.8015 107.527 18.4482 108.167 17.9548 108.54C17.4748 108.913 16.7548 109.1 15.7948 109.1H15.5548V107.48ZM25.9019 106.62H28.0419V109H25.9019V106.62ZM38.7617 104.66H34.0617V102.42L38.2817 92.8H40.8017V102.76H42.6217V104.66H40.8017V109H38.7617V104.66ZM38.7617 102.76V95.4L36.1217 102.76H38.7617ZM46.3497 95.6C46.323 95.64 45.9164 95.7333 45.1297 95.88C44.3564 96.0267 43.823 96.1267 43.5297 96.18V94.56C45.1564 94.1733 46.2697 93.5867 46.8697 92.8H48.4897V109H46.3497V95.6ZM55.6194 109.18C54.326 109.18 53.3394 108.82 52.6594 108.1C51.9927 107.367 51.6594 106.34 51.6594 105.02V104.48H53.7794V104.84C53.806 105.667 53.946 106.3 54.1994 106.74C54.466 107.18 54.9394 107.4 55.6194 107.4C56.3394 107.4 56.826 107.153 57.0794 106.66C57.346 106.153 57.4794 105.407 57.4794 104.42C57.4794 103.513 57.3127 102.807 56.9794 102.3C56.646 101.78 56.106 101.493 55.3594 101.44C55.306 101.427 55.206 101.42 55.0594 101.42V99.28H55.3394C56.0994 99.2533 56.646 99.0533 56.9794 98.68C57.3127 98.3067 57.4794 97.6867 57.4794 96.82C57.4794 96.02 57.346 95.42 57.0794 95.02C56.8127 94.6067 56.3327 94.4 55.6394 94.4C54.946 94.4 54.466 94.62 54.1994 95.06C53.946 95.5 53.806 96.1467 53.7794 97V97.34H51.6594V96.8C51.6594 95.48 51.9927 94.46 52.6594 93.74C53.3394 93.02 54.3327 92.66 55.6394 92.66C56.946 92.66 57.9327 93.0267 58.5994 93.76C59.2794 94.48 59.6194 95.5 59.6194 96.82C59.6194 97.7667 59.4127 98.54 58.9994 99.14C58.586 99.74 58.0194 100.147 57.2994 100.36C58.0327 100.587 58.5994 101.047 58.9994 101.74C59.4127 102.433 59.6194 103.327 59.6194 104.42C59.6194 105.927 59.2927 107.1 58.6394 107.94C57.9994 108.767 56.9927 109.18 55.6194 109.18ZM61.3706 102.16H65.8306V103.78H61.3706V102.16ZM71.7164 109.18C70.4497 109.18 69.4764 108.833 68.7964 108.14C68.1164 107.447 67.7631 106.453 67.7364 105.16V104.98H69.8764C69.8764 105.807 70.0097 106.42 70.2764 106.82C70.5564 107.207 71.0431 107.4 71.7364 107.4C72.9364 107.4 73.5364 106.247 73.5364 103.94V101.48C73.3231 101.827 73.0164 102.1 72.6164 102.3C72.2297 102.5 71.7497 102.6 71.1764 102.6C69.9097 102.6 69.0097 102.2 68.4764 101.4C67.9564 100.587 67.6964 99.4267 67.6964 97.92C67.6964 96.3333 68.0231 95.06 68.6764 94.1C69.3297 93.14 70.3431 92.66 71.7164 92.66C73.0497 92.66 74.0431 93.1533 74.6964 94.14C75.3631 95.1133 75.6964 96.3867 75.6964 97.96V103.4C75.6964 105.147 75.3897 106.547 74.7764 107.6C74.1631 108.653 73.1431 109.18 71.7164 109.18ZM71.7164 100.98C72.5031 100.98 73.1097 100.607 73.5364 99.86V97.46C73.5364 95.4333 72.9297 94.42 71.7164 94.42C71.0497 94.42 70.5697 94.7 70.2764 95.26C69.9964 95.8067 69.8564 96.52 69.8564 97.4C69.8564 98.2133 69.8897 98.86 69.9564 99.34C70.0231 99.82 70.1897 100.213 70.4564 100.52C70.7231 100.827 71.1431 100.98 71.7164 100.98ZM81.7155 109.16C80.3155 109.16 79.3088 108.767 78.6955 107.98C78.0955 107.18 77.7955 106.007 77.7955 104.46H79.9355C79.9355 105.367 80.0555 106.093 80.2955 106.64C80.5488 107.187 81.0355 107.46 81.7555 107.46C82.3021 107.46 82.7088 107.3 82.9755 106.98C83.2421 106.66 83.4088 106.24 83.4755 105.72C83.5555 105.187 83.5955 104.48 83.5955 103.6C83.5955 102.787 83.5488 102.14 83.4555 101.66C83.3755 101.167 83.2021 100.793 82.9355 100.54C82.6821 100.273 82.2955 100.14 81.7755 100.14C81.3621 100.14 80.9955 100.267 80.6755 100.52C80.3688 100.773 80.1355 101.093 79.9755 101.48H78.1555V92.8H85.1355V94.94H80.0955L79.9555 99.42C80.5288 98.82 81.3088 98.52 82.2955 98.52C83.5355 98.52 84.4155 98.9467 84.9355 99.8C85.4688 100.64 85.7355 101.813 85.7355 103.32C85.7355 105.16 85.4355 106.593 84.8355 107.62C84.2355 108.647 83.1955 109.16 81.7155 109.16ZM87.3472 102.16H91.8072V103.78H87.3472V102.16ZM97.973 109.18C96.6396 109.18 95.633 108.747 94.953 107.88C94.2863 107.013 93.953 105.853 93.953 104.4V97.42C93.953 95.94 94.2796 94.78 94.933 93.94C95.5996 93.0867 96.613 92.66 97.973 92.66C99.3196 92.66 100.32 93.0867 100.973 93.94C101.64 94.78 101.973 95.94 101.973 97.42V104.4C101.973 105.867 101.64 107.033 100.973 107.9C100.306 108.753 99.3063 109.18 97.973 109.18ZM97.973 107.42C99.1996 107.42 99.813 106.42 99.813 104.42V97.4C99.813 96.48 99.6796 95.7533 99.413 95.22C99.1596 94.6733 98.6796 94.4 97.973 94.4C97.2663 94.4 96.7796 94.6733 96.513 95.22C96.2463 95.7533 96.113 96.48 96.113 97.4V104.42C96.113 106.42 96.733 107.42 97.973 107.42ZM108.125 109.18C106.712 109.18 105.692 108.773 105.065 107.96C104.438 107.147 104.125 105.973 104.125 104.44C104.125 103.413 104.292 102.593 104.625 101.98C104.972 101.367 105.472 100.86 106.125 100.46C104.925 99.66 104.325 98.4533 104.325 96.84C104.325 95.52 104.638 94.4933 105.265 93.76C105.892 93.0267 106.845 92.66 108.125 92.66C109.392 92.66 110.332 93.0267 110.945 93.76C111.572 94.4933 111.885 95.52 111.885 96.84C111.885 97.7067 111.732 98.4333 111.425 99.02C111.118 99.5933 110.672 100.073 110.085 100.46C110.738 100.873 111.238 101.387 111.585 102C111.932 102.613 112.105 103.427 112.105 104.44C112.105 105.96 111.792 107.133 111.165 107.96C110.538 108.773 109.525 109.18 108.125 109.18ZM108.125 99.48C109.232 99.4667 109.785 98.5467 109.785 96.72C109.785 96 109.652 95.42 109.385 94.98C109.132 94.54 108.712 94.32 108.125 94.32C107.538 94.32 107.105 94.54 106.825 94.98C106.558 95.42 106.425 96 106.425 96.72C106.425 97.52 106.552 98.18 106.805 98.7C107.058 99.2067 107.498 99.4667 108.125 99.48ZM108.125 107.48C108.845 107.48 109.345 107.22 109.625 106.7C109.905 106.167 110.045 105.427 110.045 104.48C110.045 103.613 109.892 102.907 109.585 102.36C109.292 101.813 108.805 101.533 108.125 101.52C107.432 101.533 106.932 101.813 106.625 102.36C106.318 102.907 106.165 103.613 106.165 104.48C106.165 105.427 106.305 106.167 106.585 106.7C106.878 107.22 107.392 107.48 108.125 107.48Z" fill="white"/>
</svg>
