<svg width="101" height="108" viewBox="0 0 101 108" fill="none" xmlns="http://www.w3.org/2000/svg">
<path d="M1.26 7.8L3.52 7.8L3.52 14.8L7.68 14.8L7.68 7.8L9.94 7.8L9.94 24H7.68L7.68 16.42H3.52L3.52 24H1.26L1.26 7.8ZM14.3709 24.16C13.9309 24.16 13.5309 24.0333 13.1709 23.78C12.8243 23.5267 12.5509 23.1933 12.3509 22.78C12.1509 22.3667 12.0509 21.9333 12.0509 21.48C12.0509 20.5733 12.2443 19.84 12.6309 19.28C13.0176 18.7067 13.5109 18.2533 14.1109 17.92C14.7109 17.5867 15.5443 17.2067 16.6109 16.78V15.96C16.6109 15.2 16.5309 14.6667 16.3709 14.36C16.2243 14.04 15.9176 13.88 15.4509 13.88C14.6376 13.88 14.2309 14.4267 14.2309 15.52V16.1L12.1109 16.02C12.1376 14.74 12.4309 13.8 12.9909 13.2C13.5509 12.5867 14.4176 12.28 15.5909 12.28C16.6976 12.28 17.4976 12.5867 17.9909 13.2C18.4976 13.8 18.7509 14.7133 18.7509 15.94V21.22C18.7509 22.0867 18.8176 23.0133 18.9509 24H16.9909C16.8443 23.24 16.7509 22.6733 16.7109 22.3C16.5509 22.82 16.2709 23.26 15.8709 23.62C15.4843 23.98 14.9843 24.16 14.3709 24.16ZM15.2109 22.32C15.4909 22.32 15.7643 22.2133 16.0309 22C16.2976 21.7733 16.4909 21.56 16.6109 21.36V18.08C16.0376 18.4 15.5909 18.68 15.2709 18.92C14.9643 19.1467 14.7043 19.4133 14.4909 19.72C14.2909 20.0267 14.1909 20.3933 14.1909 20.82C14.1909 21.3 14.2776 21.6733 14.4509 21.94C14.6243 22.1933 14.8776 22.32 15.2109 22.32ZM20.8066 12.44H24.0466C25.1532 12.44 25.9466 12.7067 26.4266 13.24C26.9199 13.7733 27.1666 14.46 27.1666 15.3C27.1666 15.9133 27.0532 16.4267 26.8266 16.84C26.5999 17.24 26.2066 17.5267 25.6466 17.7C26.2999 17.8333 26.7599 18.1667 27.0266 18.7C27.3066 19.2333 27.4466 19.88 27.4466 20.64C27.4466 21.7333 27.1999 22.5667 26.7066 23.14C26.2132 23.7133 25.3599 24 24.1466 24H20.8066V12.44ZM23.9466 17.1C24.3866 17.1 24.7199 16.9733 24.9466 16.72C25.1732 16.4667 25.2866 16.0467 25.2866 15.46C25.2866 14.94 25.1532 14.5667 24.8866 14.34C24.6199 14.1133 24.2332 14 23.7266 14H22.9066V17.1H23.9466ZM23.6666 22.38C24.1999 22.38 24.6132 22.2533 24.9066 22C25.1999 21.7467 25.3466 21.2667 25.3466 20.56C25.3466 19.9867 25.2799 19.5667 25.1466 19.3C25.0132 19.02 24.8399 18.84 24.6266 18.76C24.4132 18.68 24.1266 18.64 23.7666 18.64H22.9066V22.38H23.6666ZM32.3073 24.16C31.414 24.16 30.7207 23.9933 30.2273 23.66C29.734 23.3133 29.3873 22.8067 29.1873 22.14C28.9873 21.4733 28.8873 20.6067 28.8873 19.54V16.9C28.8873 15.3 29.134 14.1333 29.6273 13.4C30.134 12.6533 31.0273 12.28 32.3073 12.28C33.2407 12.28 33.9407 12.4733 34.4073 12.86C34.8873 13.2467 35.2007 13.7933 35.3473 14.5C35.5073 15.1933 35.5873 16.1333 35.5873 17.32V18.26L31.0273 18.26V20.58C31.0273 21.2867 31.1273 21.8 31.3273 22.12C31.5407 22.4267 31.874 22.58 32.3273 22.58C32.7807 22.58 33.0873 22.4267 33.2473 22.12C33.4073 21.8 33.4873 21.32 33.4873 20.68V19.98H35.5673V20.42C35.5673 21.6333 35.3073 22.56 34.7873 23.2C34.2673 23.84 33.4407 24.16 32.3073 24.16ZM33.4873 17.1V16.06C33.4873 15.2733 33.4073 14.7133 33.2473 14.38C33.1007 14.0333 32.7807 13.86 32.2873 13.86C31.9407 13.86 31.674 13.94 31.4873 14.1C31.314 14.26 31.194 14.5267 31.1273 14.9C31.0607 15.26 31.0273 15.7867 31.0273 16.48V17.1L33.4873 17.1ZM37.5253 12.44L39.6653 12.44V13.36C40.292 12.64 41.0253 12.28 41.8653 12.28C42.9186 12.28 43.6186 12.7333 43.9653 13.64C44.3253 14.5333 44.5053 15.5267 44.5053 16.62V19.42C44.5053 20.8333 44.2853 21.98 43.8453 22.86C43.4186 23.7267 42.6786 24.16 41.6253 24.16C40.9453 24.16 40.292 23.82 39.6653 23.14V27.8H37.5253L37.5253 12.44ZM41.2053 22.48C41.6986 22.48 42.012 22.2333 42.1453 21.74C42.292 21.2333 42.3653 20.46 42.3653 19.42V16.62C42.3653 15.7667 42.2853 15.1133 42.1253 14.66C41.9653 14.1933 41.632 13.96 41.1253 13.96C40.632 13.96 40.1453 14.16 39.6653 14.56V21.96C40.132 22.3067 40.6453 22.48 41.2053 22.48ZM48.1511 17.92L45.6111 12.44H47.6511L49.3511 16.1L50.8511 12.44H52.9511L50.3111 18.18L52.9911 24H50.9511L49.1311 20.08L47.5711 24H45.5511L48.1511 17.92Z" fill="white"/>
<path d="M90.3846 108L90.3846 11M90.3846 11L83 29.9689M90.3846 11L99 29.9689" stroke="white" stroke-width="3"/>
</svg>
